<?xml version="1.0" encoding="utf-8"?>
<!-- Generator: Adobe Illustrator 18.1.1, SVG Export Plug-In . SVG Version: 6.00 Build 0)  -->
<svg version="1.1" id="Layer_1" xmlns="http://www.w3.org/2000/svg" xmlns:xlink="http://www.w3.org/1999/xlink" x="0px" y="0px"
	 viewBox="0 0 368 671" enable-background="new 0 0 368 671" xml:space="preserve">
<path opacity="0.5" fill="#54A346" d="M310.2,250.2c-3,1.8-6,3.6-9,5.4c-3.9,2.3-7.9,4.5-11.9,6.8c-3.7,2.2-7.5,4.4-11.2,6.6
	c-3.2,1.9-6.5,3.9-9.7,5.8c-2.5,1.5-5,2.9-7.5,4.4c-3.5,2.1-7,4.1-10.5,6.2c-1.7,1-3.4,2-5.1,3c-0.6,0.3-1.1,0.3-1.6-0.2
	c-0.4-0.4-0.6-0.9-1-1.5c0.9-0.6,1.7-1.1,2.6-1.6c5.6-3.3,11.2-6.6,16.9-9.9c3.1-1.8,6.1-3.7,9.2-5.5c3.4-2,6.8-3.9,10.2-5.9
	c5.2-3,10.3-6.1,15.5-9.1c3.3-1.9,6.5-3.9,9.8-5.8C309,247.6,309.2,247.7,310.2,250.2z"/>
<path opacity="0.5" fill="#54A346" d="M253.2,294.4c-0.4-0.8-0.8-1.6-1.3-2.5c1.2-0.8,2.4-1.5,3.6-2.2c3.1-1.8,6.2-3.5,9.3-5.3
	c5-2.9,10-6,15-8.9c6.5-3.8,12.9-7.5,19.4-11.3c2.6-1.5,5.1-3.1,7.7-4.6c0.6-0.4,1.2-0.6,2-1c0.4,0.7,0.8,1.4,1.4,2.4
	c-0.4,0.3-0.7,0.6-1.1,0.8c-5.9,3.5-11.9,7-17.8,10.5c-5.3,3.1-10.7,6.3-16,9.4c-5,2.9-10.1,5.9-15.1,8.8c-2.1,1.2-4.2,2.5-6.2,3.8
	C253.8,294.2,253.6,294.3,253.2,294.4z"/>
<path opacity="0.5" fill="#54A346" d="M301.1,244.9c-2.4,1.4-4.7,2.7-7,4.1c-2.7,1.6-5.4,3.2-8.1,4.8c-2.6,1.6-5.3,3.1-7.9,4.6
	c-2.8,1.7-5.6,3.4-8.5,5.1c-2.5,1.5-5,2.8-7.5,4.3c-3.3,2-6.7,4-10,5.9c-2.5,1.5-5.1,2.9-7.8,4.5c-0.5-0.9-0.8-1.6-1.3-2.4
	c0.6-0.4,1-0.8,1.6-1.1c6.4-3.8,12.8-7.5,19.3-11.3c4.9-2.9,9.8-5.8,14.7-8.7c6.5-3.8,13.1-7.6,19.6-11.4c1.6-0.9,2-0.8,2.8,0.8
	C301,244.4,301,244.6,301.1,244.9z"/>
<path opacity="0.5" fill="#54A346" d="M262.4,299.7c-0.6-1-1-1.6-1.5-2.3c0.6-0.4,1.1-0.8,1.6-1.1c3.4-2,6.9-4,10.3-6
	c3.3-2,6.7-3.9,10-5.9c5.3-3.1,10.6-6.2,16-9.4c2.8-1.6,5.6-3.3,8.3-4.9c1.7-1,1.8-1.1,2.8,0.6c0.1,0.2,0.2,0.4,0.4,0.8
	c-7.8,5-15.9,9.4-23.8,14.1C278.5,290.4,270.6,295.1,262.4,299.7z"/>
<path opacity="0.5" fill="#54A346" d="M244.3,267.5c-0.5-0.8-0.9-1.5-1.4-2.3c0.4-0.3,0.6-0.6,1-0.8c3.3-2,6.6-4,9.9-5.9
	c3.4-2,6.8-4.1,10.2-6.1c3.2-1.9,6.4-3.7,9.6-5.5c2.8-1.6,5.5-3.4,8.3-5c1.9-1.1,3.9-2.2,5.9-3.3c0.8-0.5,1.7-1,2.7-1.6
	c0.5,0.8,1,1.5,1.6,2.4C276.1,248.8,260.3,258.1,244.3,267.5z"/>
<path opacity="0.5" fill="#54A346" d="M270.2,302.5c2.6-1.5,5-2.8,7.3-4.2c2.8-1.7,5.6-3.4,8.4-5.1c3.1-1.8,6.3-3.6,9.5-5.4
	c3.4-2,6.9-4.1,10.3-6.1c0.6-0.4,1.3-0.8,2-1.1c1.1-0.6,1.5-0.5,2.1,0.6c0.2,0.3,0.3,0.6,0.5,1.1c-1.4,0.9-2.8,1.9-4.3,2.8
	c-4.9,2.8-9.8,5.6-14.6,8.4c-5.8,3.4-11.6,6.8-17.4,10.2c-0.4,0.3-0.9,0.6-1.3,0.9c-0.9,0.7-1.1,0.6-1.7-0.4
	C270.7,303.7,270.5,303.2,270.2,302.5z"/>
<path opacity="0.5" fill="#54A346" d="M281.6,231.9c0.3,0.6,0.7,1.3,1.1,2c-0.4,0.4-0.7,0.8-1.2,1c-3.9,2.3-7.9,4.5-11.9,6.8
	c-5.9,3.5-11.8,7-17.8,10.5c-2.5,1.5-4.9,3-7.5,4.5c-0.5-0.9-1-1.6-1.4-2.2C244.6,253,279.4,232.6,281.6,231.9z"/>
<path opacity="0.5" fill="#54A346" d="M143-0.3c0,0.6,0,1.3,0,1.9c0,22,0,44,0,66.1c0,0.7,0,1.4,0,2.2c-0.9,0-1.6,0-2.4,0
	c-0.1-0.4-0.2-0.8-0.2-1.2c0-22.8,0-45.7,0-68.5c0-0.2,0-0.3,0-0.5C141.4-0.3,142.2-0.3,143-0.3z"/>
<path opacity="0.5" fill="#54A346" d="M133.9-0.3c0,0.6,0,1.2,0,1.7c0,20.3,0,40.7,0,61c0,0.7,0,1.4,0,2.2c-0.9,0-1.5,0-2.5,0
	c0-0.7-0.1-1.3-0.1-2c0-12.6,0-25.3,0-37.9c0-7.7,0-15.4,0-23.1c0-0.6,0-1.3,0.1-1.9C132.3-0.3,133.1-0.3,133.9-0.3z"/>
<path opacity="0.5" fill="#54A346" d="M152.1-0.3c0,0.6,0.1,1.3,0.1,1.9c0,20.3,0,40.6,0,60.8c0,0.7,0,1.4,0,2.2c-0.9,0-1.5,0-2.5,0
	c0-0.6-0.1-1.3-0.1-2c0-15.9,0-31.8,0-47.7c0-5.1,0-10.1,0-15.2C150.5-0.3,151.3-0.3,152.1-0.3z"/>
<path opacity="0.5" fill="#54A346" d="M87.4-0.3c0.4,1.2,0.4,1.5-0.5,2c-4.1,2.4-8.3,4.8-12.4,7.3c-4.1,2.4-8.1,4.9-12.2,7.3
	c-3.2,1.9-6.4,3.7-9.6,5.5c-3.5,2-7,4.1-10.5,6.2c-0.6,0.3-1.2,0.7-1.9,1.1c-0.4-0.8-0.7-1.5-1.2-2.4c0.8-0.6,1.5-1.2,2.3-1.6
	c5.2-3,10.5-6.1,15.7-9.1c5.7-3.3,11.5-6.7,17.2-10c3-1.8,6-3.6,9-5.4c0.4-0.2,0.7-0.6,1.1-0.9C85.3-0.3,86.4-0.3,87.4-0.3z"/>
<path opacity="0.5" fill="#54A346" d="M211.9-0.3c0.6,0.5,1.2,1,1.9,1.4c4.4,2.6,8.7,5.2,13.1,7.8c3.2,1.9,6.5,3.7,9.8,5.6
	c1.5,0.9,2.9,1.8,4.6,2.9c-0.4,0.7-0.9,1.4-1.4,2.3c-1.6-0.9-3.2-1.8-4.7-2.6c-3.5-2-6.9-4.1-10.4-6.2c-4-2.4-7.9-4.7-11.9-7
	c-2-1.2-4-2.3-6-3.5c-0.3-0.2-0.6-0.5-0.9-0.8C208-0.3,209.9-0.3,211.9-0.3z"/>
<path opacity="0.5" fill="#54A346" d="M71.7-0.3c-1.1,0.7-2.2,1.5-3.4,2.1c-5.7,3.4-11.4,6.7-17.2,10.1c-3.5,2.1-7,4.1-10.7,6.3
	c-0.5-0.7-0.9-1.4-1.4-2.2c0.7-0.5,1.3-1,2-1.4c5.1-3,10.3-5.9,15.4-8.9c3-1.8,6-3.6,9-5.4c0.2-0.1,0.4-0.4,0.7-0.5
	C67.9-0.3,69.8-0.3,71.7-0.3z"/>
<path opacity="0.5" fill="#54A346" d="M101.8-0.3c1,0.7,1.9,1.4,3,2c2.4,1.4,4.8,2.8,7.2,4.3c-0.5,0.9-0.9,1.6-1.4,2.5
	c-0.4-0.2-0.8-0.4-1.1-0.6c-4.2-2.5-8.5-5-12.7-7.4c-0.3-0.2-0.6-0.5-0.9-0.8C97.8-0.3,99.8-0.3,101.8-0.3z"/>
<path opacity="0.5" fill="#54A346" d="M181.5-0.3c-1.4,0.9-2.9,1.9-4.3,2.8c-1.9,1.2-3.7,2.3-5.6,3.4c-0.2,0.1-0.5,0.3-0.7,0.4
	c-1.2,0.5-1.4,0.4-2-0.7c-0.2-0.4-0.4-0.7-0.6-1.2c2.6-1.6,5.1-3.2,7.7-4.8C177.8-0.3,179.6-0.3,181.5-0.3z"/>
<path opacity="0.5" fill="#54A346" d="M41.3-0.3c0,3.5,0,7.1,0,10.7c-1,0-1.8,0-2.8,0c0-3.6,0-7.2,0-10.7
	C39.4-0.3,40.3-0.3,41.3-0.3z"/>
<path opacity="0.5" fill="#54A346" d="M245.2,0c0,3.4,0,6.8,0,10.3c-1,0-1.8,0-2.8,0c0-3.6-0.1-7.1-0.1-10.7c0.9,0,1.9,0,2.8,0
	C245.2-0.2,245.2-0.1,245.2,0z"/>
<path opacity="0.5" fill="#54A346" d="M32.2-0.3c0,1.8,0,3.6,0,5.4c-1,0-1.8,0-2.6,0c-0.8-1.8-0.1-3.7-0.5-5.4
	C30.1-0.3,31.1-0.3,32.2-0.3z"/>
<path opacity="0.5" fill="#54A346" d="M236.1,0c0,1.7,0,3.3,0,5.1c-1,0-1.8,0-2.8,0c0-1.7-0.1-3.4-0.1-5.1c0-0.1,0-0.2,0-0.3
	c0.9,0,1.9,0,2.8,0C236.1-0.2,236.1-0.1,236.1,0z"/>
<path opacity="0.5" fill="#54A346" d="M50.3-0.3c0,1.8,0,3.5,0,5.4c-1,0-1.7,0-2.7,0c-0.1-1.8,0-3.6-0.1-5.4
	C48.5-0.3,49.4-0.3,50.3-0.3z"/>
<path opacity="0.5" fill="#54A346" d="M119.9-0.3c0.3,0.4,0.7,0.7,1,1.1c0,0.1,0,0.3,0,0.3c-1.2,2-1.4,2.1-3.4,0.8
	c-0.6-0.4-1.3-0.8-1.9-1.1c-0.5-0.3-1-0.5-0.9-1.1C116.4-0.3,118.2-0.3,119.9-0.3z"/>
<path opacity="0.5" fill="#54A346" d="M353.2,596c0-0.4,0.1-0.8,0.1-1.3c0.9,0,1.8,0,2.9,0c0.1,0.4,0.1,0.9,0.2,1.3
	C355.3,596,354.2,596,353.2,596z"/>
<path opacity="0.5" fill="#54A346" d="M163.3-0.3c-0.7,0.5-1.4,1.1-2.2,1.6c-0.5,0.3-0.9,0.2-1.2-0.3c-0.2-0.4-0.3-0.8-0.5-1.3
	C160.7-0.3,162-0.3,163.3-0.3z"/>
<path opacity="0.5" fill="#54A346" d="M227-0.3c-0.9,0.5-1.9,0.5-2.8,0C225.1-0.3,226-0.3,227-0.3z"/>
<path opacity="0.5" fill="#54A346" d="M245.2,0c0-0.1,0-0.2-0.1-0.3c0.1,0,0.2,0,0.3,0C245.4-0.2,245.3-0.1,245.2,0z"/>
<path opacity="0.5" fill="#54A346" d="M233.2-0.3c0,0.1,0,0.2,0,0.3c-0.1-0.1-0.2-0.2-0.3-0.3C233-0.3,233.1-0.3,233.2-0.3z"/>
<path opacity="0.5" fill="#54A346" d="M236.1,0c0-0.1,0-0.2,0-0.3c0.1,0,0.2,0,0.3,0C236.3-0.2,236.2-0.1,236.1,0z"/>
<path opacity="0.5" fill="#54A346" d="M173.9,13.1c0.5-0.8,0.9-1.5,1.4-2.4c22.1,13,44,25.8,66,38.8c-0.5,0.8-0.9,1.5-1.3,2.2
	C238.6,51.6,176.4,14.8,173.9,13.1z"/>
<path opacity="0.5" fill="#54A346" d="M142.3,229.2c-0.5-0.8-1-1.5-1.5-2.2c0.3-0.3,0.5-0.5,0.7-0.6c5.9-3.5,11.7-6.9,17.6-10.4
	c5.9-3.4,11.8-6.8,17.6-10.3c4-2.4,8-4.8,12-7.2c4-2.3,8-4.6,12-6.9c1.9-1.1,3.8-2.4,5.8-3.6c0.4,0.3,0.7,0.5,0.9,0.8
	c0.9,1.3,0.8,1.8-0.5,2.6c-3.3,1.9-6.5,3.7-9.8,5.6c-2.4,1.4-4.7,2.8-7,4.2c-2.8,1.7-5.6,3.3-8.4,4.9c-3.6,2.1-7.2,4.2-10.8,6.3
	c-2.5,1.5-5,2.9-7.5,4.4c-2.8,1.7-5.5,3.4-8.3,5c-2.4,1.4-4.9,2.8-7.4,4.2c-1.4,0.8-2.7,1.6-4.1,2.4
	C143.3,228.7,142.9,228.9,142.3,229.2z"/>
<path opacity="0.5" fill="#54A346" d="M275.9,311.5c1.3-3.1,1.4-2.5,3.6-1.3c4,2.3,7.9,4.7,11.8,7c3.3,1.9,6.6,3.8,9.9,5.8
	c3.5,2,6.9,4.1,10.3,6.1c3.2,1.9,6.4,3.8,9.6,5.6c4.1,2.4,8.2,4.8,12.3,7.2c3.2,1.9,6.4,3.8,9.7,5.8c-0.5,0.9-0.9,1.7-1.4,2.5
	C319.8,337.2,297.9,324.4,275.9,311.5z"/>
<path opacity="0.5" fill="#54A346" d="M40.3,50.3c-0.6-0.9-1-1.5-1.5-2.3c2.4-1.5,4.8-2.9,7.2-4.3c4.3-2.5,8.7-5.1,13-7.6
	c5-2.9,10-5.8,14.9-8.7c3-1.8,5.9-3.6,8.9-5.3c3.3-2,6.7-3.9,10-5.9c3.6-2.1,7.2-4.2,10.7-6.3c1.2-0.7,1.7-0.5,2.3,0.8
	c0.3,0.6,0.2,1.1-0.4,1.5c-1.2,0.7-2.4,1.4-3.6,2.1c-5.1,3-10.2,6.1-15.4,9.1c-5.8,3.4-11.6,6.7-17.4,10.1c-3.2,1.9-6.4,3.9-9.6,5.8
	c-2.6,1.5-5.2,3-7.8,4.5c-2.7,1.6-5.4,3.2-8,4.8C42.5,49.2,41.5,49.7,40.3,50.3z"/>
<path opacity="0.5" fill="#54A346" d="M241.4,288.1c-0.5,0.8-0.9,1.5-1.5,2.4c-1.2-0.7-2.4-1.3-3.6-2c-2.4-1.3-4.7-2.7-7-4.1
	c-1.5-0.9-2.9-1.9-4.4-2.7c-2.8-1.6-5.6-3.2-8.4-4.9c-2.6-1.6-5.2-3.1-7.9-4.7c-2.6-1.5-5.2-3-7.8-4.5c-2.6-1.5-5.2-3-7.8-4.6
	c-2.8-1.7-5.7-3.3-8.5-5c-3-1.8-6-3.5-8.9-5.3c-1.9-1.2-1.8-2,0.1-3.3C197.5,262.3,219.4,275.1,241.4,288.1z"/>
<path opacity="0.5" fill="#54A346" d="M241.3,526.5c-0.5,0.9-0.9,1.5-1.2,2.1c-0.1,0.1-0.2,0.1-0.2,0.1c-0.1,0-0.1,0-0.2,0
	c-0.2,0-0.3-0.1-0.5-0.1c-0.2-0.1-0.4-0.2-0.6-0.3c-21.4-12.6-42.9-25.2-64.3-37.8c-0.1-1.1,0.3-1.9,1.3-2.6
	C197.4,500.7,219.3,513.6,241.3,526.5z"/>
<path opacity="0.5" fill="#54A346" d="M40.4,288.9c-0.5-0.8-1-1.6-1.5-2.3c2.3-1.4,4.5-2.8,6.7-4.2c5.9-3.5,11.7-6.9,17.6-10.3
	c3.8-2.2,7.6-4.4,11.4-6.6c3.5-2,6.9-4.1,10.4-6.1c3.3-1.9,6.7-3.9,10-5.8c2.9-1.7,5.7-3.4,8.6-5.1c1.2-0.7,2.3-0.2,2.4,1.2
	c0.1,0.7-0.4,0.9-0.9,1.1c-2.8,1.7-5.6,3.4-8.5,5.1c-3.7,2.2-7.5,4.3-11.3,6.5c-6.4,3.8-12.8,7.6-19.2,11.4
	c-2.6,1.6-5.3,3.1-7.9,4.6c-3.5,2.1-7,4.1-10.5,6.2C45.3,286.1,42.9,287.5,40.4,288.9z"/>
<path opacity="0.5" fill="#54A346" d="M206.8,307.4c0.5,0.8,1,1.6,1.5,2.4c-2,1.2-3.8,2.2-5.6,3.3c-4.2,2.5-8.3,5-12.5,7.5
	c-1.7,1-3.5,2-5.3,3c-2.7,1.6-5.4,3.2-8.1,4.8c-2.5,1.5-5,2.9-7.5,4.4c-2.9,1.7-5.8,3.4-8.7,5.1c-2.6,1.5-5.2,3-7.8,4.5
	c-2,1.2-4,2.5-6.1,3.7c-1.4,0.8-2.9,1.6-4.5,2.5c-0.5-0.8-1-1.4-1.6-2.3c1.4-0.9,2.6-1.8,3.9-2.5c4-2.3,8-4.6,12-6.9
	c3-1.8,6-3.6,9-5.4c3.5-2,7-4.1,10.5-6.1c4.8-2.8,9.7-5.6,14.5-8.5c3.3-1.9,6.5-3.9,9.8-5.9C202.6,309.8,204.6,308.6,206.8,307.4z"
	/>
<path opacity="0.5" fill="#54A346" d="M173.8,370.9c0.5-0.8,1-1.5,1.6-2.4c22,12.9,43.9,25.8,66,38.7c-0.5,0.8-0.9,1.5-1.5,2.4
	c-1-0.5-2-1-2.9-1.5c-2.9-1.7-5.8-3.4-8.6-5.1c-3.5-2.1-7-4.2-10.6-6.3c-2.3-1.4-4.6-2.7-6.9-4c-3.5-2.1-7.1-4.1-10.6-6.2
	c-2.4-1.4-4.9-2.8-7.3-4.3c-3.5-2.1-6.9-4.2-10.4-6.2c-2.7-1.6-5.4-3.1-8.1-4.6C174.3,371.3,174.2,371.2,173.8,370.9z"/>
<path opacity="0.5" fill="#54A346" d="M242.9,525c1.7-1,3.1-1.9,4.5-2.7c6.4-3.8,12.8-7.5,19.3-11.2c4.9-2.9,9.7-5.8,14.6-8.6
	c6.5-3.8,12.9-7.5,19.4-11.3c2.2-1.3,4.3-2.7,6.5-3.9c2-1.1,2.2-0.9,3,1.5c-2.2,1.4-4.5,2.8-6.7,4.1c-4,2.4-8.1,4.6-12.2,7
	c-5.3,3.1-10.6,6.2-15.8,9.3c-3.1,1.9-6.2,3.7-9.4,5.6c-2.5,1.5-5,2.9-7.5,4.4c-2.9,1.7-5.8,3.4-8.7,5.1c-1.5,0.9-3,1.8-4.5,2.7
	c-0.6,0.3-1.2,0.3-1.6-0.3C243.5,526.2,243.3,525.7,242.9,525z"/>
<path opacity="0.5" fill="#54A346" d="M206.8,68.8c0.5,1,1,1.7,1.4,2.5c-1.7,1-3.3,1.9-4.9,2.9c-3.5,2.1-7,4.1-10.5,6.2
	c-2.5,1.5-5,2.9-7.5,4.4c-2.8,1.6-5.6,3.3-8.4,4.9c-2.5,1.5-5,3-7.5,4.4c-2.6,1.6-5.3,3.1-7.9,4.6c-2.7,1.6-5.5,3.2-8.2,4.8
	c-2.9,1.7-5.7,3.5-8.6,5.2c-0.7,0.4-1.6,0.8-2.5,1.2c-0.5-0.8-1-1.5-1.6-2.4C162.8,94.6,184.7,81.8,206.8,68.8z"/>
<path opacity="0.5" fill="#54A346" d="M310.2,250.2c-3,1.8-6,3.6-9,5.4c-3.9,2.3-7.9,4.5-11.9,6.8c-3.7,2.2-7.5,4.4-11.2,6.6
	c-3.2,1.9-6.5,3.9-9.7,5.8c-2.5,1.5-5,2.9-7.5,4.4c-3.5,2.1-7,4.1-10.5,6.2c-1.7,1-3.4,2-5.1,3c-0.6,0.3-1.1,0.3-1.6-0.2
	c-0.4-0.4-0.6-0.9-1-1.5c0.9-0.6,1.7-1.1,2.6-1.6c5.6-3.3,11.2-6.6,16.9-9.9c3.1-1.8,6.1-3.7,9.2-5.5c3.4-2,6.8-3.9,10.2-5.9
	c5.2-3,10.3-6.1,15.5-9.1c3.3-1.9,6.5-3.9,9.8-5.8C309,247.6,309.2,247.7,310.2,250.2z"/>
<path opacity="0.5" fill="#54A346" d="M241.3,168.7c-0.3,0.6-0.5,1-0.7,1.5c-0.5,0.9-1,1-1.8,0.5c-1.9-1.2-3.8-2.4-5.7-3.5
	c-3.3-1.9-6.6-3.8-9.9-5.7c-3.7-2.1-7.4-4.3-11-6.5c-3.3-1.9-6.5-4-9.8-5.9c-2.4-1.4-4.9-2.8-7.3-4.2c-3.4-2-6.8-4-10.2-5.9
	c-2.7-1.6-5.5-3.2-8.2-4.8c-0.3-0.1-0.5-0.3-0.8-0.4c-2.1-1.4-2.1-1.4-0.3-3.6C197.4,143,219.3,155.9,241.3,168.7z"/>
<path opacity="0.5" fill="#54A346" d="M343.2,228.4c-0.5,0.8-0.8,1.4-1.2,2.2c-0.6-0.2-1.3-0.3-1.8-0.6c-2.5-1.4-5-2.9-7.5-4.3
	c-4.3-2.5-8.7-5.1-13-7.7c-4-2.4-8-4.8-12-7.2c-2.5-1.5-5-2.9-7.5-4.3c-3.2-1.9-6.4-3.8-9.5-5.6c-2.9-1.7-5.9-3.4-8.8-5.1
	c-1.8-1-3.6-2-5.4-3.1c-0.2-0.1-0.4-0.3-0.6-0.4c0.5-0.9,0.8-1.7,1.3-2.6c11.1,6.5,22,12.8,33,19.3
	C321.2,215.3,332.1,221.8,343.2,228.4z"/>
<path opacity="0.5" fill="#54A346" d="M139.2,109.3c-0.2,0.4-0.3,0.7-0.4,0.9c-0.7,1.1-1.2,1.2-2.3,0.6c-1-0.5-2-1.1-3-1.7
	c-3.5-2.1-6.9-4.1-10.4-6.2c-2.9-1.7-5.8-3.5-8.8-5.2c-2.9-1.7-5.9-3.4-8.8-5.1c-4.1-2.4-8.1-4.8-12.2-7.2
	c-3.5-2.1-7.1-4.1-10.7-6.1c-2.6-1.5-5.3-3.1-7.9-4.7c-0.6-0.4-1.2-0.7-1.8-1c-0.9-0.5-1-0.8-0.4-1.6c0.9-1.4,1-1.4,2.4-0.6
	c3.2,1.9,6.4,3.8,9.6,5.6c4.1,2.4,8.1,4.7,12.2,7.1c5,2.9,10,5.9,15,8.9c2.6,1.5,5.3,3,7.9,4.5c4.1,2.4,8.1,4.8,12.1,7.2
	c2.2,1.3,4.4,2.6,6.6,3.9C138.5,108.7,138.8,109,139.2,109.3z"/>
<path opacity="0.5" fill="#54A346" d="M104.9,367.1c0.5,0.8,0.9,1.5,1.4,2.3c-22,12.9-43.9,25.8-65.9,38.7c-0.2-0.2-0.4-0.3-0.5-0.4
	c-0.9-1.9-1.5-2,0.8-3.2c3.6-2,7.2-4.1,10.8-6.2c3-1.8,5.9-3.6,8.9-5.3c3.4-2,6.9-4,10.3-6c5-2.9,10-5.8,14.9-8.7
	c3.2-1.9,6.3-3.8,9.5-5.7c2.7-1.6,5.5-3.2,8.3-4.7C103.9,367.6,104.3,367.4,104.9,367.1z"/>
<path opacity="0.5" fill="#54A346" d="M142.4,467.8c-0.6-1-1-1.7-1.5-2.5c21.9-12.9,43.8-25.7,65.8-38.6c1,0.5,1.2,1.4,1.6,2.5
	C186.3,442,164.4,454.9,142.4,467.8z"/>
<path opacity="0.5" fill="#54A346" d="M72.1,311.4c0-0.3,0-0.4,0-0.4c1.2-2.2,1.3-2.1,3.4-0.9c6.6,3.9,13.2,7.7,19.8,11.6
	c3.9,2.3,7.8,4.6,11.7,6.9c3.4,2,6.7,3.9,10.1,5.9c5.8,3.4,11.6,6.8,17.4,10.2c1.6,0.9,3.1,2,4.7,3.1c-0.2,0.4-0.3,0.8-0.5,1.1
	c-0.6,1-1.1,1.1-2.2,0.5c-2.2-1.2-4.3-2.5-6.4-3.8c-2.1-1.3-4.2-2.6-6.4-3.8c-4.2-2.5-8.4-4.9-12.6-7.4c-2.5-1.5-5.1-3-7.6-4.5
	c-3.4-2-6.8-4.1-10.3-6.1c-2.7-1.6-5.5-3.2-8.2-4.8c-3.2-1.9-6.4-3.8-9.7-5.8C74.2,312.7,73.1,312,72.1,311.4z"/>
<path opacity="0.5" fill="#54A346" d="M244.4,169.6c-0.5-0.8-0.9-1.5-1.5-2.4c0.5-0.4,1-0.8,1.5-1.1c3.4-2,6.9-3.9,10.4-5.9
	c5.5-3.2,10.9-6.5,16.4-9.7c5.9-3.4,11.8-6.8,17.6-10.3c5.4-3.2,10.8-6.4,16.2-9.6c1.2-0.7,2.5-1.4,3.9-2.2c0.4,0.8,0.9,1.6,1.3,2.5
	C288.3,143.9,266.4,156.7,244.4,169.6z"/>
<path opacity="0.5" fill="#54A346" d="M139.3,228.4c-1.5,2.8-1.3,2.4-3.4,1.3c-2.6-1.4-5.2-3-7.8-4.5c-4.2-2.5-8.5-5-12.7-7.5
	c-4-2.4-8-4.8-12.1-7.2c-2.5-1.5-5-2.9-7.5-4.4c-3-1.8-5.9-3.6-8.9-5.3c-2.5-1.5-5-2.9-7.5-4.3c-2.4-1.4-4.9-2.8-7.4-4.3
	c0.5-0.9,0.9-1.7,1.4-2.6C95.3,202.6,117.3,215.4,139.3,228.4z"/>
<path opacity="0.5" fill="#54A346" d="M244.3,408.2c-0.5-0.9-0.9-1.6-1.3-2.5c1.2-0.8,2.4-1.5,3.6-2.2c3.2-1.8,6.4-3.7,9.6-5.5
	c2.6-1.5,5.1-3.1,7.7-4.6c3.4-2,6.8-3.9,10.2-5.9c5-2.9,9.9-5.9,14.9-8.8c5.9-3.4,11.7-6.8,17.6-10.3c0.4-0.3,0.9-0.5,1.3-0.8
	c0.7-0.5,1.2-0.4,1.7,0.4c0.9,1.4,0.9,1.5-0.6,2.3c-4.2,2.4-8.3,4.9-12.4,7.3c-2.5,1.5-5,2.9-7.5,4.4c-3.4,2-6.9,4.1-10.3,6.1
	c-2.7,1.6-5.5,3.2-8.2,4.8c-4.1,2.4-8.2,4.9-12.4,7.4c-3.2,1.9-6.5,3.7-9.8,5.6c-0.9,0.5-1.8,1.1-2.7,1.6
	C245.2,407.7,244.8,407.9,244.3,408.2z"/>
<path opacity="0.5" fill="#54A346" d="M40.4,169.6c-1.6-2.5-1.6-2.5,0.7-3.8c3.1-1.8,6.2-3.5,9.3-5.3c5.9-3.4,11.7-6.9,17.6-10.4
	c4-2.4,8-4.8,12-7.2c1.8-1.1,3.6-2,5.4-3.1c5-3,10-6,15-8.9c1.4-0.8,2.9-1.6,4.5-2.4c0.5,0.8,0.9,1.5,1.5,2.3
	C84.3,143.9,62.4,156.7,40.4,169.6z"/>
<path opacity="0.5" fill="#54A346" d="M343.2,466.9c-0.4,0.7-0.7,1.4-1.1,2.2c-0.6-0.2-1.2-0.3-1.6-0.5c-5.2-3-10.3-5.9-15.4-9
	c-4.9-2.9-9.8-5.9-14.7-8.8c-5.8-3.4-11.7-6.8-17.5-10.2c-3.2-1.9-6.3-3.8-9.5-5.7c-1.8-1.1-3.7-2.1-5.6-3.2
	c-0.6-0.3-1.2-0.7-1.8-1.2c0.5-0.7,0.9-1.4,1.5-2.3c11.2,6.1,21.9,12.8,32.9,19.1C321.3,453.7,332.1,460.3,343.2,466.9z"/>
<path opacity="0.5" fill="#54A346" d="M73.4,428.2c22,12.9,43.9,25.8,65.9,38.7c-0.6,0.8-1.1,1.5-1.6,2.3c-1.6-0.9-3.1-1.7-4.5-2.5
	c-3.7-2.1-7.3-4.2-10.9-6.3c-3.1-1.8-6.2-3.7-9.4-5.6c-2.7-1.6-5.5-3.2-8.2-4.8c-4.2-2.5-8.3-5-12.5-7.5c-1.8-1.1-3.6-2-5.4-3.1
	c-2.6-1.5-5.3-3.1-7.9-4.7c-1.9-1.1-3.9-2.3-5.8-3.4c-1.3-0.8-1.3-0.8-0.4-2.1C72.9,429.1,73.1,428.8,73.4,428.2z"/>
<path opacity="0.5" fill="#54A346" d="M344.6,231c0.8,0,1.6,0,2.3,0c0,0,0.1,0.1,0.1,0.1c0,0,0.1,0.1,0.1,0.1c0,0.2,0.1,0.5,0.1,0.7
	c0,25.3,0,50.5,0,75.8c0,0.2-0.1,0.3-0.2,0.6c-0.8,0-1.5,0-2.5,0C344.6,282.7,344.6,257,344.6,231z"/>
<path opacity="0.5" fill="#54A346" d="M38.6,290.7c0.8,0,1.6,0,2.4,0c0,25.8,0,51.5,0,77.4c-0.7,0-1.5,0.1-2.2,0.1
	c-0.2-0.2-0.2-0.2-0.2-0.2c0,0-0.1-0.1-0.1-0.1c0-0.2-0.1-0.5-0.1-0.7c0-25.3,0-50.6,0-75.8C38.5,291.3,38.5,291.1,38.6,290.7z"/>
<path opacity="0.5" fill="#54A346" d="M41,129.7c-0.8,0-1.5,0-2.4,0c0-25.8,0-51.5,0-77.4c0.8,0,1.6,0,2.4,0
	C41.3,53.5,41.4,127.5,41,129.7z"/>
<path opacity="0.5" fill="#54A346" d="M242.5,410.1c0.9,0,1.7,0,2.6,0c0,25.8,0,51.4,0,77.3c-0.8,0-1.6,0-2.6,0
	C242.5,461.6,242.5,436,242.5,410.1z"/>
<path opacity="0.5" fill="#54A346" d="M242.6,290.8c0.8,0,1.6,0,2.4,0c0,25.8,0,51.5,0,77.4c-0.8,0-1.6,0-2.4,0c0,0,0,0-0.1-0.1
	c0,0-0.1-0.1-0.1-0.1c0-0.3-0.1-0.6-0.1-0.9c0-25.2,0-50.4,0-75.7C242.4,291.2,242.5,291.1,242.6,290.8z"/>
<path opacity="0.5" fill="#54A346" d="M242.5,171.6c0.9,0,1.7,0,2.6,0c0,25.8,0,51.5,0,77.3c-0.8,0-1.6,0-2.6,0
	C242.5,223.1,242.5,197.5,242.5,171.6z"/>
<path opacity="0.5" fill="#54A346" d="M38.5,248.8c0-25.8,0-51.5,0-77.3c0.9,0,1.7,0,2.5,0c0,0.5,0.1,1,0.1,1.4
	c0,24.7,0,49.4,0,74.1C41.2,249.1,41,249.2,38.5,248.8z"/>
<path opacity="0.5" fill="#54A346" d="M38.5,487.4c0-25.9,0-51.5,0-77.3c0.9,0,1.7,0,2.6,0c0,0.6,0.1,1.2,0.1,1.8
	c0,24.5,0,49.1,0,73.6c0,0.2,0,0.5,0,0.7c-0.1,1.1-0.2,1.3-1.3,1.4C39.5,487.5,39.1,487.4,38.5,487.4z"/>
<path opacity="0.5" fill="#54A346" d="M347,547c-0.8,0-1.6,0-2.4,0c0-25.7,0-51.3,0-77.1c0.8,0,1.5,0,2.4,0c0,0,0,0,0.1,0.1
	c0,0,0.1,0.1,0.1,0.1c0,0.3,0.1,0.6,0.1,0.9c0,25.1,0,50.2,0,75.4C347.2,546.5,347.1,546.6,347,547z"/>
<path opacity="0.5" fill="#54A346" d="M347,189.2c-0.8,0-1.6,0-2.4,0c0-25.7,0-51.3,0-77.1c0.8,0,1.6,0,2.4,0
	C347.3,113.3,347.4,186.9,347,189.2z"/>
<path opacity="0.5" fill="#54A346" d="M347.1,427.7c-0.9,0-1.7,0-2.5,0c0-25.7,0-51.4,0-77.1c0.8,0,1.6,0,2.5,0
	C347.1,376.2,347.1,401.9,347.1,427.7z"/>
<path opacity="0.5" fill="#54A346" d="M232.1,293.3c0.1,0.3,0.1,0.3,0.1,0.4c-0.9,2.5-1,2.6-3.3,1.2c-4.1-2.4-8.1-4.9-12.2-7.3
	c-5-3-10.1-5.8-15.1-8.8c-3.3-1.9-6.5-4-9.8-5.9c-3.3-2-6.7-3.8-10.1-5.7c-2.2-1.2-4.3-2.5-6.4-3.8c-0.5-0.3-0.9-0.7-1.4-1.1
	c0.1-0.3,0.2-0.5,0.3-0.7c1.2-1.7,1.2-1.6,2.7-0.7c5.3,3.2,10.6,6.2,15.9,9.4c6.5,3.8,12.9,7.5,19.4,11.3c4.8,2.8,9.7,5.7,14.5,8.6
	C228.5,291.2,230.4,292.3,232.1,293.3z"/>
<path opacity="0.5" fill="#54A346" d="M253.2,533c-0.5-1-0.9-1.9-1.3-2.7c19-11.2,37.9-22.3,57-33.5c0.5,0.8,0.9,1.5,1.3,2.3
	c-1.9,1.7-4,2.8-6.1,4c-4,2.3-7.9,4.5-11.9,6.8c-3.8,2.2-7.6,4.5-11.3,6.7c-3.2,1.9-6.4,3.8-9.5,5.7c-2.6,1.5-5.2,3-7.8,4.5
	c-2.7,1.6-5.5,3.2-8.2,4.8C254.7,532.1,254,532.5,253.2,533z"/>
<path opacity="0.5" fill="#54A346" d="M174,501.2c0.1-0.4,0.1-0.6,0.2-0.8c0.7-1.8,1.2-2,2.8-1c5.7,3.4,11.5,6.8,17.2,10.1
	c4,2.4,8,4.7,12,7.1c1.8,1.1,3.7,2.1,5.6,3.2c3.5,2.1,7,4.1,10.5,6.2c2.4,1.4,4.9,2.8,7.4,4.3c0.9,0.5,1.7,1.2,2.7,1.8
	c-0.4,0.8-0.8,1.4-1.2,2.2c-1.8-0.4-3.2-1.5-4.7-2.4c-2.9-1.7-5.8-3.4-8.6-5.1c-4-2.4-8-4.8-12.1-7.2c-2.5-1.5-5-2.9-7.5-4.4
	c-3.4-2-6.8-4.1-10.3-6.1c-2.7-1.6-5.5-3.2-8.2-4.8C177.9,503.4,176,502.3,174,501.2z"/>
<path opacity="0.5" fill="#54A346" d="M173.9,23.8c0.5-0.8,0.9-1.4,1.4-2.2c5,2.4,9.5,5.6,14.3,8.3c4.8,2.7,9.5,5.6,14.2,8.4
	c4.7,2.8,9.4,5.5,14.1,8.2c4.7,2.8,9.5,5.6,14.2,8.4c0,0.2,0.1,0.3,0,0.4c-0.4,0.7-0.6,1.6-1.2,2c-0.9,0.5-1.3-0.6-2-1
	c-5.4-3.1-10.8-6.2-16.2-9.3c-5.4-3.1-10.8-6.3-16.1-9.5c-3.2-1.9-6.3-3.9-9.5-5.7c-2.6-1.5-5.2-2.9-7.8-4.5
	C177.5,26.2,175.7,25,173.9,23.8z"/>
<path opacity="0.5" fill="#54A346" d="M140.9,335.3c1.1-0.7,2.1-1.3,3.1-1.9c5.9-3.5,11.7-6.9,17.6-10.4c4.3-2.5,8.6-4.9,12.9-7.4
	c3-1.8,6-3.6,9.1-5.4c3.4-2,6.8-3.9,10.2-5.9c1-0.6,1.9-1.3,2.9-1.8c1.1-0.6,1.3-0.4,1.8,0.5c0.6,1.1,0.6,1.6-0.4,2.2
	c-0.8,0.5-1.7,1-2.6,1.5c-4.1,2.3-8.2,4.6-12.2,7c-4,2.4-8,4.8-12.1,7.2c-1.8,1.1-3.6,2-5.4,3.1c-3.5,2.1-7,4.2-10.6,6.3
	c-2.4,1.4-4.8,2.8-7.2,4.2c-1.3,0.8-2.6,1.6-3.8,2.4c-0.3,0.2-0.6,0.4-0.9,0.5c-0.7,0.4-1.3,0.3-1.7-0.5
	C141.5,336.3,141.2,335.9,140.9,335.3z"/>
<path opacity="0.5" fill="#54A346" d="M253.2,294.4c-0.4-0.8-0.8-1.6-1.3-2.5c1.2-0.8,2.4-1.5,3.6-2.2c3.1-1.8,6.2-3.5,9.3-5.3
	c5-2.9,10-6,15-8.9c6.5-3.8,12.9-7.5,19.4-11.3c2.6-1.5,5.1-3.1,7.7-4.6c0.6-0.4,1.2-0.6,2-1c0.4,0.7,0.8,1.4,1.4,2.4
	c-0.4,0.3-0.7,0.6-1.1,0.8c-5.9,3.5-11.9,7-17.8,10.5c-5.3,3.1-10.7,6.3-16,9.4c-5,2.9-10.1,5.9-15.1,8.8c-2.1,1.2-4.2,2.5-6.2,3.8
	C253.8,294.2,253.6,294.3,253.2,294.4z"/>
<path opacity="0.5" fill="#54A346" d="M208.5,201.2c-19.1,11.2-38.1,22.4-57,33.5c-1.6-1.5-1.3-2.7,0.5-3.8c5-2.9,10.1-5.8,15.1-8.8
	c4.1-2.4,8.2-4.8,12.2-7.2c3.2-1.9,6.4-3.9,9.6-5.8c3.4-2,6.8-3.9,10.2-5.9c2-1.2,3.9-2.4,5.9-3.5c0.2-0.1,0.5-0.3,0.8-0.4
	c1-0.5,1.2-0.5,1.8,0.5C207.9,200.2,208.1,200.6,208.5,201.2z"/>
<path opacity="0.5" fill="#54A346" d="M139.1,98.6c0,0.1,0,0.2-0.1,0.3c-1,2.2-1,2.1-3.1,0.9c-5.7-3.3-11.4-6.6-17.1-9.9
	c-4-2.4-8-4.8-12-7.2c-2.6-1.6-5.3-3-8-4.5c-3.2-1.9-6.3-3.8-9.5-5.7c-2-1.2-4.1-2.4-6.1-3.5c-0.7-0.4-1.4-0.8-2.2-1.4
	c0.5-0.9,0.9-1.7,1.3-2.4C84.3,65.9,138.3,97.7,139.1,98.6z"/>
<path opacity="0.5" fill="#54A346" d="M275.8,441.3c0.5-0.9,1-1.5,1.5-2.4c19,11.1,37.9,22.3,57,33.5c-0.5,0.8-0.9,1.5-1.4,2.4
	c-5.1-2.5-9.7-5.6-14.4-8.4c-4.7-2.8-9.4-5.6-14.2-8.3c-4.8-2.8-9.6-5.5-14.4-8.3C285.2,447,280.6,444.1,275.8,441.3z"/>
<path opacity="0.5" fill="#54A346" d="M130.3,353.1c-0.5,0.9-1,1.6-1.5,2.5c-19-11.2-37.8-22.2-56.8-33.3c0.4-0.9,0.8-1.7,1.2-2.7
	C92.3,330.8,111.2,341.9,130.3,353.1z"/>
<path opacity="0.5" fill="#54A346" d="M207.1,437.4c0.4,0.9,0.8,1.5,1.2,2.4c-19,11.2-37.9,22.3-56.9,33.5c-0.3-0.4-0.5-0.7-0.7-1.1
	c-0.2-0.3-0.4-0.7-0.7-1.3c1.2-0.8,2.4-1.7,3.6-2.4c6.4-3.8,12.9-7.6,19.4-11.4c3.2-1.9,6.5-3.7,9.7-5.6c3.5-2,6.9-4.1,10.4-6.2
	c3.4-2,6.8-3.9,10.2-5.9c0.6-0.4,1.2-0.8,1.9-1.2C205.8,437.9,206.4,437.7,207.1,437.4z"/>
<path opacity="0.5" fill="#54A346" d="M309,139.3c0.4,0.8,0.9,1.5,1.4,2.4c-1.8,1-3.4,2-5,3c-4.1,2.4-8.1,4.9-12.2,7.3
	c-3.5,2-7,4-10.5,6c-4.1,2.4-8.2,4.9-12.3,7.4c-5.3,3.1-10.7,6.3-16,9.4c-0.3,0.2-0.7,0.2-1.1,0.3c-0.2-0.3-0.3-0.5-0.4-0.7
	c-0.8-1.6-0.8-1.6,0.7-2.4c6.6-3.9,13.1-7.7,19.7-11.6c5.9-3.5,11.8-7,17.7-10.4c5.1-3,10.2-6,15.3-9
	C307,140.2,307.9,139.8,309,139.3z"/>
<path opacity="0.5" fill="#54A346" d="M49.3,294.3c-0.5-0.8-0.9-1.5-1.5-2.4c19-11.1,37.9-22.3,57-33.5c0.5,0.8,1,1.4,1.5,2.2
	c-0.6,0.4-1,0.9-1.5,1.2c-5,2.9-10.1,5.9-15.1,8.8c-3.1,1.8-6.2,3.7-9.2,5.5c-2.5,1.5-5,2.9-7.5,4.4c-2.9,1.7-5.8,3.4-8.7,5.1
	c-2.5,1.5-5.1,3-7.6,4.5c-2,1.2-4.1,2.4-6.1,3.6C50.2,293.9,49.9,294,49.3,294.3z"/>
<path opacity="0.5" fill="#54A346" d="M275.9,202.9c0.5-0.9,0.9-1.7,1.4-2.6c19,11.2,38,22.3,57.1,33.5c-0.5,0.8-0.9,1.5-1.4,2.4
	c-6.6-3.5-12.7-7.5-19.1-11.1c-6.4-3.6-12.6-7.4-19-11.1C288.6,210.4,282.3,206.7,275.9,202.9z"/>
<path opacity="0.5" fill="#54A346" d="M253.4,413.6c-0.2-0.2-0.3-0.2-0.4-0.3c-1.2-2.2-1.1-2.1,1-3.4c4.4-2.6,8.7-5.2,13.1-7.8
	c2.2-1.3,4.4-2.5,6.6-3.8c2.9-1.7,5.7-3.4,8.6-5.1c3.4-2,6.9-4,10.3-6c4.1-2.4,8.2-4.8,12.2-7.2c1.3-0.8,2.6-1.5,4-2.4
	c0.5,0.8,0.9,1.6,1.4,2.5C291.2,391.4,272.3,402.5,253.4,413.6z"/>
<path opacity="0.5" fill="#54A346" d="M197.9,63.6c0.2,0.4,0.4,0.6,0.5,0.9c0.7,1.3,0.7,1.4-0.6,2.1c-3,1.8-6.1,3.6-9.1,5.4
	c-4.2,2.5-8.4,5.1-12.7,7.6c-3.4,2-7,3.9-10.4,5.9c-3.2,1.8-6.3,3.7-9.4,5.6c-2.8,1.6-5.6,3.2-8.4,4.9c-1.2,0.7-2.5,1.5-3.7,2.3
	c-1.5,1.1-2.1,1-2.9-0.6c-0.1-0.3-0.2-0.5-0.4-0.9c2-1.2,4-2.4,6-3.5c3.1-1.8,6.3-3.6,9.4-5.4c5.2-3.1,10.4-6.1,15.6-9.2
	c4.9-2.9,9.8-5.8,14.7-8.7c3.2-1.9,6.4-3.8,9.7-5.7C196.8,63.9,197.4,63.8,197.9,63.6z"/>
<path opacity="0.5" fill="#54A346" d="M49.4,413.6c-0.6-0.9-1-1.5-1.5-2.3c0.4-0.4,0.7-0.7,1.1-0.9c5-2.9,10.1-5.9,15.1-8.8
	c3.1-1.8,6.1-3.7,9.2-5.5c3.4-2,6.8-3.9,10.2-5.9c2.6-1.5,5.2-3.2,7.9-4.7c3.4-2,6.9-4,10.3-6c0.5-0.3,1.1-0.7,1.6-1
	c1.3-0.8,1.7-0.7,2.5,0.6c0.2,0.2,0.3,0.5,0.6,0.9C87.4,391.3,68.5,402.4,49.4,413.6z"/>
<path opacity="0.5" fill="#54A346" d="M207,79.5c0.5,0.9,0.8,1.6,1.3,2.5c-19,11.3-37.9,22.3-56.9,33.5c-0.6-0.9-1-1.6-1.5-2.4
	c1.7-1,3.2-1.9,4.7-2.8c4.3-2.5,8.6-5,12.8-7.5c1.9-1.1,3.8-2.2,5.7-3.3c2.7-1.6,5.4-3.2,8-4.8c3.3-2,6.7-3.9,10-5.8
	c3.5-2,6.9-4.1,10.4-6.2C203.3,81.6,205,80.7,207,79.5z"/>
<path opacity="0.5" fill="#54A346" d="M130.3,233.8c-0.5,0.9-0.8,1.5-1.1,2.2c-1.6,0.3-2.5-0.9-3.5-1.5c-5.3-3-10.6-6.2-15.8-9.3
	c-4-2.4-8-4.8-12-7.2c-3.4-2-6.8-3.9-10.2-5.8c-1.9-1.1-3.7-2.3-5.6-3.4c-2.6-1.5-5.3-3.1-7.9-4.6c-0.6-0.4-1.3-0.8-2.1-1.3
	c0.4-0.9,0.8-1.7,1.3-2.6C92.3,211.5,111.2,222.6,130.3,233.8z"/>
<path opacity="0.5" fill="#54A346" d="M81.1,306c0.2-0.4,0.3-0.7,0.4-1c0.8-1.7,0.8-1.6,2.4-0.6c2.2,1.4,4.4,2.6,6.6,3.9
	c4.2,2.5,8.5,5,12.7,7.5c4.2,2.5,8.4,4.9,12.6,7.3c2.6,1.5,5.1,3,7.6,4.5c3.5,2,7,4,10.5,6.1c1.7,1,3.4,2.1,5.1,3.2
	c0,0.2,0,0.4,0,0.4c-1,2.1-1,2.2-3.1,1c-3.5-2-6.9-4-10.3-6.1c-2.6-1.5-5.2-3-7.8-4.5c-1.5-0.9-3-1.7-4.5-2.6
	c-3.2-1.9-6.4-3.7-9.6-5.6c-3.4-2-6.9-4.1-10.3-6.1c-3.3-2-6.7-3.9-10-5.8C82.7,307.1,81.9,306.6,81.1,306z"/>
<path opacity="0.5" fill="#54A346" d="M232.3,412.8c-0.3,0.5-0.4,1-0.7,1.4c-0.5,0.7-1.1,0.8-1.8,0.4c-3.1-1.8-6.3-3.7-9.4-5.5
	c-4.2-2.5-8.5-4.9-12.7-7.4c-2.7-1.6-5.4-3.3-8.1-4.9c-2.4-1.4-4.9-2.8-7.3-4.2c-3.5-2.1-6.9-4.1-10.4-6.2c-1.7-1-3.5-2-5.3-3
	c-0.9-0.5-1.7-1-2.6-1.6c0.4-0.7,0.8-1.4,1.4-2.3c0.9,0.4,1.8,0.8,2.6,1.3c7.3,4.2,14.5,8.5,21.8,12.8c5.7,3.4,11.4,6.7,17.1,10.1
	c5,2.9,10,5.8,15,8.8C231.8,412.4,232,412.6,232.3,412.8z"/>
<path opacity="0.5" fill="#54A346" d="M40.4,397.4c-0.5-0.8-1-1.5-1.6-2.4c19-11.1,37.9-22.3,56.9-33.4c0.5,0.8,1,1.5,1.5,2.5
	C78.4,375.2,59.5,386.3,40.4,397.4z"/>
<path opacity="0.5" fill="#54A346" d="M334.3,353.1c-0.5,0.8-0.9,1.5-1.4,2.3c-9.8-5.2-19.1-11.1-28.6-16.6
	c-9.5-5.4-18.9-11.1-28.5-16.9c0.5-0.8,1-1.5,1.5-2.4C296.3,330.8,315.3,341.9,334.3,353.1z"/>
<path opacity="0.5" fill="#54A346" d="M49.3,175.1c-0.6-0.9-1-1.5-1.5-2.3c2.1-1.3,4.2-2.6,6.2-3.9c6.5-3.9,13.1-7.7,19.7-11.6
	c4-2.4,8.1-4.6,12.2-7c5.6-3.3,11.3-6.6,16.9-9.9c2.1-1.3,2.1-1.3,3.5,0.9c-0.7,1.1-2,1.5-3,2.1c-3.2,1.9-6.4,3.7-9.6,5.5
	c-4.6,2.7-9.3,5.4-13.9,8.2c-2.3,1.4-4.5,2.8-6.8,4.1c-2.8,1.7-5.7,3.3-8.5,5c-3.5,2.1-6.9,4.2-10.4,6.2
	C52.5,173.4,51,174.1,49.3,175.1z"/>
<path opacity="0.5" fill="#54A346" d="M173.8,143.2c0.5-0.8,0.9-1.5,1.4-2.3c9.7,5.2,19,11.1,28.5,16.6c9.5,5.5,19,11.2,28.5,16.8
	c-0.2,0.5-0.3,0.8-0.5,1.1c-0.7,1.1-1.3,1.3-2.5,0.6c-1.5-0.9-3-1.7-4.5-2.6c-4.4-2.6-8.7-5.2-13.1-7.8c-4-2.4-8-4.8-12-7.2
	c-2.5-1.5-5-2.9-7.5-4.3c-2.7-1.6-5.4-3.1-8.1-4.7c-2.8-1.6-5.6-3.3-8.4-4.9C175.1,144,174.5,143.6,173.8,143.2z"/>
<path opacity="0.5" fill="#54A346" d="M151.4,354c-0.6-0.9-1-1.6-1.5-2.5c18.9-11.1,37.6-22.1,56.3-33.1c0.2-0.1,0.6-0.1,1-0.1
	c0.3,0.7,0.7,1.3,1.1,2.1c-9.4,5.9-19,11.2-28.4,16.8C170.4,342.9,161,348.4,151.4,354z"/>
<path opacity="0.5" fill="#54A346" d="M130.3,114.6c-0.5,0.9-0.9,1.6-1.5,2.5C109.8,105.9,91,94.9,72,83.7c0.4-0.9,0.8-1.7,1.3-2.7
	C92.3,92.3,111.2,103.4,130.3,114.6z"/>
<path opacity="0.5" fill="#54A346" d="M241.3,396.4c-1.2,2.8-1.4,2.8-3.7,1.3c-2.6-1.6-5.3-3.1-7.9-4.6c-3.6-2.1-7.2-4.3-10.9-6.5
	c-2.4-1.4-4.8-2.8-7.2-4.1c-3.2-1.8-6.3-3.6-9.5-5.4c-5.3-3.1-10.6-6.3-16-9.4c-0.4-0.2-0.8-0.5-1.2-0.7c-2-1.2-2-1.2-0.8-3.5
	c0.5,0.1,1.1,0.2,1.5,0.4c3.1,1.8,6.1,3.6,9.1,5.4c3.3,2,6.7,3.9,10.1,5.9c4.3,2.5,8.5,5,12.7,7.5c1.9,1.1,3.8,2.2,5.7,3.3
	c4.9,2.9,9.9,5.9,14.8,8.8C239.2,395.3,240.2,395.9,241.3,396.4z"/>
<path opacity="0.5" fill="#54A346" d="M105,20c0.5,0.8,0.9,1.5,1.2,2.1c-1,1.3-55.3,33-57,33.5c-0.4-0.7-0.9-1.4-1.4-2.2
	c1.7-1,3.3-2,4.9-3c5.3-3.1,10.5-6.2,15.8-9.3c2.7-1.6,5.4-3.1,8.1-4.6c3.1-1.8,6.2-3.7,9.4-5.6c2.6-1.5,5.2-3,7.8-4.5
	c3-1.8,5.9-3.6,8.9-5.3C103.4,20.7,104.1,20.4,105,20z"/>
<path opacity="0.5" fill="#54A346" d="M72,441.4c0.2-0.5,0.4-1,0.6-1.5c0.1-0.3,0.3-0.6,0.6-1.1c19,11.1,37.9,22.3,56.7,33.3
	c0,0.4,0.1,0.5,0.1,0.6c-0.9,2.2-1,2.2-2.9,1.1c-3.6-2.1-7.1-4.3-10.7-6.4c-3.4-2-6.9-3.9-10.4-5.9c-1.7-1-3.4-2-5.1-3
	c-3.7-2.2-7.4-4.3-11.1-6.4c-2.3-1.4-4.6-2.8-7-4.2c-2.8-1.7-5.7-3.3-8.5-5C73.6,442.4,72.9,441.9,72,441.4z"/>
<path opacity="0.5" fill="#54A346" d="M244.3,516.8c-0.5-0.9-0.9-1.6-1.3-2.3c1.3-1.3,54.6-32.7,56.8-33.4c0.4,0.7,0.8,1.3,1.4,2.2
	C282.3,494.5,263.3,505.5,244.3,516.8z"/>
<path opacity="0.5" fill="#54A346" d="M343.4,337c-0.6,1-1.1,1.6-1.6,2.4c-19-11.2-37.8-22.2-56.8-33.4c0.4-0.9,0.8-1.6,1.3-2.6
	c9.6,5.6,19.1,11.1,28.5,16.6C324.3,325.7,333.7,331.3,343.4,337z"/>
<path opacity="0.5" fill="#54A346" d="M138,219.9c-2-0.7-55.9-32.3-56.9-33.4c0.4-0.7,0.7-1.4,1.2-2.3c19,11.2,37.9,22.3,56.8,33.4
	c-0.2,0.5-0.3,0.9-0.5,1.2C138.5,219.2,138.3,219.5,138,219.9z"/>
<path opacity="0.5" fill="#54A346" d="M343.3,217.7c-0.6,0.9-1,1.6-1.6,2.5c-19-11.1-37.8-22.2-56.7-33.3c0.5-0.9,0.8-1.6,1.3-2.6
	C305.3,195.4,324.2,206.4,343.3,217.7z"/>
<path opacity="0.5" fill="#54A346" d="M244.2,158.8c-0.4-0.8-0.8-1.4-1.2-2.1c0.5-1.2,1.8-1.4,2.7-2c4.4-2.7,8.9-5.3,13.4-7.9
	c3.1-1.8,6.3-3.6,9.5-5.4c3.4-2,6.9-4,10.3-6c3.4-2,6.8-3.9,10.2-5.9c3-1.8,5.9-3.6,8.9-5.3c0.6-0.3,1.2-0.6,2-0.9
	c0.4,0.8,0.8,1.4,1.2,2.2c-0.5,0.3-0.9,0.7-1.3,1c-3.4,2-6.9,4.1-10.3,6.1c-2.6,1.6-5.3,3.1-7.9,4.6c-4.3,2.5-8.5,5.1-12.8,7.6
	c-5,3-10.1,5.9-15.2,8.8c-2.5,1.5-5.1,3-7.6,4.5C245.5,158.3,245,158.5,244.2,158.8z"/>
<path opacity="0.5" fill="#54A346" d="M95.7,3.7c0.4,0.6,0.6,0.9,0.8,1.3c0.6,1.3,0.6,1.5-0.7,2.2c-4.6,2.6-9.1,5.3-13.7,7.9
	c-4.7,2.8-9.5,5.5-14.2,8.4c-4.6,2.7-9.2,5.5-13.8,8.3c-1.9,1.1-4,2.2-5.9,3.3c-1.9,1.1-3.8,2.3-5.6,3.4c-0.6,0.4-1.3,0.7-2.2,1.2
	c-0.5-0.7-1-1.4-1.5-2.3c1.3-0.8,2.4-1.7,3.7-2.4c5-2.9,10.1-5.8,15.2-8.7c5.9-3.5,11.8-7,17.7-10.4c6-3.5,11.9-7,17.9-10.5
	C94.1,4.9,94.8,4.3,95.7,3.7z"/>
<path opacity="0.5" fill="#54A346" d="M299.9,361.6c0.4,0.8,0.8,1.5,1.2,2.3c-1.4,0.9-2.6,1.9-4,2.7c-5.4,3.1-10.8,6.2-16.2,9.4
	c-6,3.5-12,7-17.9,10.5c-5.6,3.3-11.2,6.5-16.8,9.8c-0.5,0.3-1.1,0.7-1.8,1.1c-0.5-0.8-1-1.5-1.5-2.4c1.2-0.7,2.2-1.3,3.2-1.9
	c3.4-2,6.8-3.9,10.2-5.8c5.6-3.3,11.2-6.6,16.8-10c6-3.5,12-7.1,18-10.6c2.1-1.3,4.2-2.6,6.4-3.8C298.2,362.4,299,362,299.9,361.6z"
	/>
<path opacity="0.5" fill="#54A346" d="M184.2,124.9c0.4,0.1,0.8,0,1,0.2c18.7,11,37.3,22,56.1,33c-0.5,0.8-0.9,1.4-1.4,2.2
	c-0.5-0.2-0.9-0.2-1.3-0.5c-5.4-3.1-10.9-6.3-16.3-9.5c-4.9-2.9-9.7-5.8-14.6-8.7c-5.4-3.2-10.7-6.3-16.1-9.5
	c-2.4-1.4-4.9-2.9-7.3-4.3c-1.3-0.8-1.3-0.8-0.7-2.1C183.8,125.5,184,125.3,184.2,124.9z"/>
<path opacity="0.5" fill="#54A346" d="M284.9,425.2c0.5-0.9,1-1.6,1.5-2.4c18.9,11.1,37.8,22.2,56.8,33.4c-0.3,0.5-0.4,1-0.7,1.4
	c-0.7,1-0.9,1-2,0.4c-4.2-2.5-8.5-4.9-12.7-7.4c-2.6-1.5-5.1-3.1-7.7-4.6c-2.6-1.5-5.2-3-7.8-4.5c-1.4-0.8-2.8-1.6-4.2-2.4
	c-3.3-2-6.7-3.9-10-5.9c-3.1-1.9-6.2-3.7-9.4-5.6C287.5,426.7,286.3,426,284.9,425.2z"/>
<path opacity="0.5" fill="#54A346" d="M241.2,515.8c-0.2,0.4-0.3,0.6-0.4,0.9c-0.8,1.5-1,1.5-2.5,0.6c-3.2-1.8-6.4-3.6-9.6-5.5
	c-3.5-2.1-7-4.2-10.6-6.3c-2.3-1.4-4.7-2.7-7.1-4.1c-2.6-1.5-5.3-3.1-7.9-4.7c-3.4-2-6.9-4-10.3-6c-2.7-1.6-5.4-3.1-8.1-4.7
	c-1.9-1.2-2-0.9-0.6-3.4c0.4,0.1,0.8,0.1,1.2,0.3c4.4,2.6,8.8,5.2,13.2,7.8c3.2,1.9,6.5,3.8,9.8,5.7c4.3,2.5,8.5,5,12.7,7.5
	c3.3,1.9,6.6,3.8,9.9,5.8C234.4,511.7,237.8,513.7,241.2,515.8z"/>
<path opacity="0.5" fill="#54A346" d="M199.1,423.7c-1.8,1.1-3.5,2.1-5.2,3.1c-4.1,2.5-8.2,4.9-12.4,7.4c-1.7,1-3.5,2-5.3,3
	c-2.6,1.5-5.2,3.1-7.8,4.6c-2.8,1.6-5.6,3.2-8.4,4.9c-4.2,2.5-8.4,5-12.6,7.5c-1.3,0.8-2.6,1.5-4,2.2c-1.2,0.6-1.3,0.6-2-0.7
	c-0.2-0.3-0.3-0.6-0.5-1.1c1.3-0.8,2.6-1.6,4-2.4c4.4-2.6,8.7-5.2,13.1-7.8c3.2-1.9,6.4-3.7,9.6-5.5c5.3-3.1,10.5-6.2,15.8-9.3
	c4.3-2.5,8.7-5,13-7.6c1.5-0.9,1.6-0.9,2.3,0.6C198.8,423,198.9,423.2,199.1,423.7z"/>
<path opacity="0.5" fill="#54A346" d="M301.1,244.9c-2.4,1.4-4.7,2.7-7,4.1c-2.7,1.6-5.4,3.2-8.1,4.8c-2.6,1.6-5.3,3.1-7.9,4.6
	c-2.8,1.7-5.6,3.4-8.5,5.1c-2.5,1.5-5,2.8-7.5,4.3c-3.3,2-6.7,4-10,5.9c-2.5,1.5-5.1,2.9-7.8,4.5c-0.5-0.9-0.8-1.6-1.3-2.4
	c0.6-0.4,1-0.8,1.6-1.1c6.4-3.8,12.8-7.5,19.3-11.3c4.9-2.9,9.8-5.8,14.7-8.7c6.5-3.8,13.1-7.6,19.6-11.4c1.6-0.9,2-0.8,2.8,0.8
	C301,244.4,301,244.6,301.1,244.9z"/>
<path opacity="0.5" fill="#54A346" d="M40.4,278.2c-0.5-0.9-1-1.6-1.4-2.4c2.1-1.3,4-2.5,6-3.7c4.8-2.8,9.7-5.6,14.5-8.4
	c5.9-3.5,11.8-7,17.7-10.5c5.7-3.3,11.3-6.7,17-10c1.2-0.7,1.8-0.7,2.4,0.2c0.7,1.1,0.6,1.5-0.6,2.2c-3.7,2.1-7.4,4.3-11.1,6.5
	c-3.3,1.9-6.6,3.8-9.9,5.8c-3.2,1.9-6.4,3.9-9.7,5.8c-2.5,1.5-5,2.9-7.5,4.3c-3.7,2.2-7.4,4.4-11.1,6.5
	C44.7,275.7,42.7,276.9,40.4,278.2z"/>
<path opacity="0.5" fill="#54A346" d="M241.3,277.3c-0.2,0.5-0.4,0.8-0.5,1.1c-0.7,1.3-0.9,1.3-2.3,0.6c-2.9-1.6-5.7-3.2-8.6-4.9
	c-2.4-1.4-4.8-2.9-7.3-4.4c-2.7-1.6-5.4-3.1-8.1-4.7c-2.4-1.4-4.8-2.9-7.3-4.4c-2.8-1.7-5.7-3.3-8.5-4.9c-1.8-1.1-3.5-2.2-5.3-3.3
	c-1.9-1.1-3.8-2.2-5.7-3.3c-1.1-0.6-2.2-1.2-3.3-1.9c-1.4-0.9-1.4-1.3-0.4-2.6c0.1-0.2,0.4-0.3,0.7-0.6
	C203.5,255.1,222.3,266.2,241.3,277.3z"/>
<path opacity="0.5" fill="#54A346" d="M140.9,216.1c2.4-1.4,4.8-2.7,7.1-4.1c5-3,10-6,15-8.9c5.9-3.4,11.8-6.8,17.6-10.3
	c4.6-2.7,9.1-5.4,13.7-8.1c0.7-0.4,1.4-0.8,2.1-1.2c1.2-0.7,1.5-0.6,2.2,0.6c0.2,0.3,0.3,0.6,0.5,1.1c-1.6,0.9-3.1,1.8-4.6,2.7
	c-1.6,0.9-3.2,1.9-4.8,2.8c-3.1,1.8-6.3,3.7-9.4,5.5c-3.2,1.9-6.5,3.9-9.7,5.8c-2.5,1.5-5,2.9-7.5,4.4c-3,1.8-6,3.6-9.1,5.4
	c-2.3,1.4-4.7,2.7-7.1,4c-1.1,0.6-2.1,1.2-3.2,1.8c-1.4,0.8-1.6,0.8-2.4-0.6C141.3,216.8,141.2,216.6,140.9,216.1z"/>
<path opacity="0.5" fill="#54A346" d="M139.2,456.1c-0.1,0.4-0.2,0.5-0.2,0.7c-0.8,1.6-1.4,1.7-2.9,0.8c-1.4-0.9-2.9-1.7-4.3-2.5
	c-3.6-2.1-7.2-4.2-10.8-6.3c-3.7-2.2-7.4-4.3-11-6.5c-3.6-2.1-7.1-4.3-10.7-6.4c-3.2-1.9-6.5-3.7-9.8-5.6c-2.5-1.5-5.1-3-7.6-4.5
	c-0.3-0.2-0.6-0.4-0.9-0.6c0.5-0.9,0.8-1.6,1.3-2.5C101.4,433.9,120.3,445,139.2,456.1z"/>
<path opacity="0.5" fill="#54A346" d="M184.7,5.6c2.3,1.3,4.5,2.5,6.7,3.8c2.7,1.6,5.4,3.1,8.1,4.7c3.2,1.9,6.4,3.8,9.6,5.7
	c2.8,1.6,5.5,3.2,8.3,4.8c4.1,2.4,8.3,4.9,12.4,7.4c1.7,1,3.5,2,5.3,3c1.7,1,3.5,2.1,5.2,3.1c0.8,0.4,0.9,0.9,0.5,1.7
	c-0.5,1-0.9,1.2-1.7,0.9c-0.3-0.1-0.5-0.2-0.8-0.4c-2.1-1.2-4.2-2.4-6.3-3.7c-4.1-2.4-8.1-4.9-12.2-7.3c-1.8-1.1-3.7-2.1-5.6-3.2
	c-2.5-1.5-5-2.9-7.4-4.4c-2.5-1.5-5.1-3-7.6-4.5c-2.6-1.6-5.3-3.1-7.9-4.7c-2.1-1.2-4.2-2.5-6.3-3.6C182.9,8,182.8,7.4,184.7,5.6z"
	/>
<path opacity="0.5" fill="#54A346" d="M39,156.4c18.9-11.1,37.7-22.1,56.5-33.2c1,0.4,1.2,1.4,1.7,2.3c-1.4,0.8-2.7,1.7-4.1,2.5
	c-3.6,2.2-7.2,4.3-10.9,6.5c-5,2.9-10,5.8-15,8.7c-4.1,2.4-8.1,4.9-12.2,7.3c-2.4,1.4-4.9,2.8-7.4,4.2c-1.8,1-3.5,2-5.3,3
	C40.2,158.9,40,158.8,39,156.4z"/>
<path opacity="0.5" fill="#54A346" d="M142.9,189.2c-0.8,0-1.4,0-2.2,0c0-25.7,0-51.3,0-77.1c0.7,0,1.4,0,2.1,0
	C143.1,113.3,143.3,186.7,142.9,189.2z"/>
<path opacity="0.5" fill="#54A346" d="M142.9,308.4c-0.8,0-1.4,0-2.1,0c-0.3-1.3-0.5-74.4-0.1-77.2c0.7,0,1.4,0,2.1,0
	C143.1,232.5,143.3,305.5,142.9,308.4z"/>
<path opacity="0.5" fill="#54A346" d="M142.9,546.9c-0.8,0-1.4,0-2.2,0c0-25.7,0-51.3,0-77.1c0.7,0,1.4,0,2.1,0
	C143.1,471.1,143.2,544.5,142.9,546.9z"/>
<path opacity="0.5" fill="#54A346" d="M140.7,350.5c0.8,0,1.4,0,2.2,0c0,25.7,0,51.3,0,77.1c-0.7,0-1.4,0-2.1,0
	C140.5,426.4,140.3,353.2,140.7,350.5z"/>
<path opacity="0.5" fill="#54A346" d="M353.8,475.1c0.8,0,1.5,0,2.4,0c0,22.2,0,44.3,0,66.5c-0.4,0.1-0.8,0.1-1.2,0.2
	c-0.4,0-0.8,0-1.2-0.1C353.5,540.4,353.4,477,353.8,475.1z"/>
<path opacity="0.5" fill="#54A346" d="M254.2,415.6c0,22.2,0,44.3,0,66.6c-0.9,0-1.6,0-2.5,0c0-22.2,0-44.3,0-66.6
	C252.5,415.6,253.2,415.6,254.2,415.6z"/>
<path opacity="0.5" fill="#54A346" d="M233.4,415.6c0.9,0,1.7,0,2.4,0c0.3,1.3,0.5,63.4,0.2,66.6c-0.8,0-1.6,0-2.5,0
	C233.4,460,233.4,437.8,233.4,415.6z"/>
<path opacity="0.5" fill="#54A346" d="M47.7,415.5c0.9,0,1.7,0,2.4,0c0.4,1.3,0.5,62.8,0.2,66.6c-0.8,0-1.6,0-2.6,0
	C47.7,460,47.7,437.8,47.7,415.5z"/>
<path opacity="0.5" fill="#54A346" d="M254,243.7c-0.8,0-1.6,0-2.4,0c0-22.2,0-44.3,0-66.5c0.8,0,1.6,0,2.4,0
	C254.3,178.3,254.4,241.5,254,243.7z"/>
<path opacity="0.5" fill="#54A346" d="M233.4,243.6c0-22.2,0-44.3,0-66.5c0.9,0,1.6,0,2.4,0c0.3,1.3,0.5,63.1,0.1,66.5
	C235.1,243.6,234.2,243.6,233.4,243.6z"/>
<path opacity="0.5" fill="#54A346" d="M47.7,177.1c0.9,0,1.7,0,2.4,0c0.4,1.3,0.5,63.2,0.2,66.5c-0.8,0-1.6,0-2.5,0
	C47.7,221.4,47.7,199.3,47.7,177.1z"/>
<path opacity="0.5" fill="#54A346" d="M338,541.7c-0.9,0-1.6,0-2.4,0c-0.4-1.3-0.5-64.6-0.1-66.6c0.8,0,1.5,0,2.4,0
	C338,497.3,338,519.4,338,541.7z"/>
<path opacity="0.5" fill="#54A346" d="M32,362.9c-0.9,0-1.6,0-2.3,0c-0.1-0.1-0.1-0.1-0.2-0.2c0,0-0.1-0.1-0.1-0.1
	c0-0.2-0.1-0.3-0.1-0.5c0-21.7,0-43.4,0-65c0-0.2,0.1-0.3,0.1-0.6c0.2-0.1,0.4-0.2,0.6-0.2c1.9-0.1,2,0,2,1.9c0,21.1,0,42.2,0,63.3
	C32.1,361.9,32.1,362.3,32,362.9z"/>
<path opacity="0.5" fill="#54A346" d="M254.2,362.9c-0.6,0-1.1,0.1-1.5,0.1c-0.8,0-1.2-0.4-1.1-1.2c0-0.4,0-0.8,0-1.2
	c0-20.7,0-41.4,0-62.1c0-0.7,0-1.4,0-2.1c1,0,1.8,0,2.7,0C254.2,318.6,254.2,340.6,254.2,362.9z"/>
<path opacity="0.5" fill="#54A346" d="M353.7,117.4c0.5,0,0.9-0.1,1.3-0.1c1.1,0,1.3,0.2,1.4,1.3c0,0.3,0,0.7,0,1
	c0,20.7,0,41.5,0,62.2c0,0.6,0,1.3,0,2c-0.9,0-1.7,0-2.5,0C353.5,182.6,353.3,120.7,353.7,117.4z"/>
<path opacity="0.5" fill="#54A346" d="M335.6,117.4c0.4,0,0.8-0.1,1.1-0.1c1.2,0,1.3,0.2,1.4,1.3c0,0.3,0,0.7,0,1
	c0,20.7,0,41.5,0,62.2c0,0.6,0,1.3,0,2.1c-0.9,0-1.7,0.1-2.4,0.1C335.3,182.7,335.2,119.4,335.6,117.4z"/>
<path opacity="0.5" fill="#54A346" d="M29.4,415.5c0.6,0,1.1-0.1,1.6-0.1c0.3,0,0.6,0.1,0.9,0.1c0,0.5,0.1,0.9,0.1,1.4
	c0,21.2,0,42.3,0,63.5c0,1.9-0.3,2.1-2.7,1.6C29.4,459.9,29.4,437.8,29.4,415.5z"/>
<path opacity="0.5" fill="#54A346" d="M335.4,236.6c0.9,0,1.6,0,2.5,0c0.1,0.4,0.2,0.9,0.2,1.3c0,21.2,0,42.3,0,63.5
	c0,1.9-0.3,2.1-2.7,1.6C335.4,281,335.4,258.9,335.4,236.6z"/>
<path opacity="0.5" fill="#54A346" d="M32,124.4c-0.4,0.1-0.7,0.1-1,0.1c-0.5,0-0.9,0-1.3-0.1c-0.1-0.1-0.2-0.1-0.2-0.2
	c0,0-0.1-0.1-0.1-0.1c0-21.7-0.1-43.3-0.1-65c0-0.3,0.1-0.7,0.1-1.1c0.2-0.1,0.5-0.2,0.7-0.2c1.9-0.1,2,0,2,1.9
	c0,21.1,0,42.2,0,63.3C32.1,123.4,32.1,123.8,32,124.4z"/>
<path opacity="0.5" fill="#54A346" d="M29.4,177.1c0.9,0,1.7,0,2.6,0c0,0.6,0.1,1.2,0.1,1.8c0,21,0,42,0,62.9c0,0.2,0,0.5,0,0.7
	c-0.1,1.1-0.2,1.3-1.4,1.3c-0.4,0-0.8-0.1-1.3-0.1C29.4,221.4,29.4,199.3,29.4,177.1z"/>
<path opacity="0.5" fill="#54A346" d="M50.1,124.2c-0.8,0.1-1.6,0.2-2.3,0.3c-0.4-1.3-0.5-63.5-0.2-66.5c0.8,0,1.5,0,2.3,0
	C50.4,59.1,50.5,121.5,50.1,124.2z"/>
<path opacity="0.5" fill="#54A346" d="M47.7,296.4c0.9,0,1.6,0,2.5,0c0,22.1,0,44.1,0,66.3c-0.9,0-1.6,0-2.5,0
	C47.7,340.5,47.7,318.5,47.7,296.4z"/>
<path opacity="0.5" fill="#54A346" d="M356.2,422.5c-0.6,0-1.1,0-1.6,0c-0.3,0-0.6-0.1-1-0.1c0-22.1,0-44.1,0-66.3
	c0.8,0,1.6,0,2.5,0C356.2,378.2,356.2,400.2,356.2,422.5z"/>
<path opacity="0.5" fill="#54A346" d="M353.7,236.8c0.9,0,1.7,0,2.6,0c0,22.1,0,44.1,0,66.2c-0.8,0-1.6,0-2.6,0
	C353.7,281,353.7,259,353.7,236.8z"/>
<path opacity="0.5" fill="#54A346" d="M338,422.4c-0.9,0-1.6,0-2.4,0c-0.3-1.3-0.4-64.1-0.1-66.3c0.8,0,1.5,0,2.4,0
	C338,378.2,338,400.2,338,422.4z"/>
<path opacity="0.5" fill="#54A346" d="M233.5,296.4c0.5,0,0.9-0.1,1.3-0.1c0.3,0,0.7,0.1,1,0.1c0.4,1.3,0.5,63.9,0.1,66.3
	c-0.8,0-1.5,0-2.3,0C233.2,361.4,233.1,298.7,233.5,296.4z"/>
<path opacity="0.5" fill="#54A346" d="M58.4,61.3c-0.6-0.9-0.9-1.5-1.4-2.3c0.2-0.3,0.4-0.6,0.7-0.7c3.4-2,6.7-4,10.1-6
	c3.6-2.1,7.1-4.2,10.7-6.4c2.4-1.4,4.9-2.8,7.3-4.3c3.5-2.1,6.9-4.2,10.4-6.2c2.5-1.5,5.1-2.9,7.7-4.4c0.9-0.5,1.1-0.4,1.7,0.4
	c0.3,0.4,0.4,0.9,0.7,1.5C90.3,42.5,74.4,51.9,58.4,61.3z"/>
<path opacity="0.5" fill="#54A346" d="M262.4,538.2c-0.5-0.8-1-1.5-1.5-2.4c2.1-1.2,4.1-2.4,6.1-3.6c4.4-2.6,8.7-5.2,13.1-7.8
	c1.8-1.1,3.6-2,5.4-3.1c5-3,10-5.9,15-8.9c2.2-1.3,4.4-2.5,6.6-3.9c2.1-1.2,2.3-1.2,3.2,1.4c-0.8,0.6-1.7,1.3-2.6,1.8
	c-3.5,2-6.9,3.9-10.4,5.9c-2.3,1.3-4.5,2.8-6.8,4.1c-2.8,1.6-5.6,3.2-8.4,4.9c-4.2,2.5-8.3,5-12.5,7.5
	C267.2,535.6,264.9,536.8,262.4,538.2z"/>
<path opacity="0.5" fill="#54A346" d="M262.4,299.7c-0.6-1-1-1.6-1.5-2.3c0.6-0.4,1.1-0.8,1.6-1.1c3.4-2,6.9-4,10.3-6
	c3.3-2,6.7-3.9,10-5.9c5.3-3.1,10.6-6.2,16-9.4c2.8-1.6,5.6-3.3,8.3-4.9c1.7-1,1.8-1.1,2.8,0.6c0.1,0.2,0.2,0.4,0.4,0.8
	c-7.8,5-15.9,9.4-23.8,14.1C278.5,290.4,270.6,295.1,262.4,299.7z"/>
<path opacity="0.5" fill="#54A346" d="M173.8,34.7c0.6-1,0.7-2,1.7-2.4c15.8,9.3,31.7,18.6,47.7,28c-0.5,0.8-0.9,1.5-1.5,2.5
	C205.7,53.4,189.8,44.1,173.8,34.7z"/>
<path opacity="0.5" fill="#54A346" d="M173.7,273.2c0.6-1,1.1-1.7,1.6-2.5c16,9.4,31.9,18.8,47.9,28.1c-0.5,0.8-0.9,1.5-1.4,2.4
	c-8.1-4.4-15.9-9.3-23.9-14C189.9,282.6,181.9,278,173.7,273.2z"/>
<path opacity="0.5" fill="#54A346" d="M160.5,120.9c-2-2.2-1.3-2.8,0.6-3.8c4.1-2.2,8-4.6,12-6.9c5.1-3,10.2-5.9,15.2-8.9
	c4-2.3,7.9-4.7,11.9-7.1c1.8-1.1,3.7-2.2,5.6-3.2c1.1-0.6,2.4,0.2,2.4,1.5c0,0.3-0.3,0.7-0.6,0.9c-4,2.4-8.1,4.7-12.1,7.1
	c-4.9,2.9-9.8,5.8-14.8,8.8c-2.4,1.4-4.8,2.8-7.2,4.2c-3.5,2-7,4.1-10.5,6.2C162.1,120,161.2,120.5,160.5,120.9z"/>
<path opacity="0.5" fill="#54A346" d="M223.2,418.1c-0.6,0.9-1,1.6-1.6,2.4c-5.4-3.2-10.7-6.3-16-9.4c-5.3-3.1-10.5-6.2-15.8-9.3
	c-5.3-3.1-10.6-6.2-15.9-9.3c0-0.3,0-0.5,0.1-0.5c1.2-2.1,1.2-2.1,3.3-0.8c3,1.8,6.1,3.5,9.2,5.3c4.1,2.4,8.2,4.8,12.3,7.2
	c3.2,1.9,6.5,3.9,9.7,5.8c4.3,2.5,8.5,4.9,12.8,7.4C221.9,417.3,222.5,417.6,223.2,418.1z"/>
<path opacity="0.5" fill="#54A346" d="M160.4,359.5c-0.5-0.8-1.1-1.5-1.2-2.2c-0.1-1,1.1-1,1.7-1.4c2-1.3,4-2.5,6.1-3.7
	c4.9-2.9,9.7-5.8,14.6-8.6c3.3-1.9,6.6-3.8,9.9-5.7c3.5-2,6.9-4.1,10.4-6.2c1-0.6,2.1-1.2,3.2-1.8c2-1.1,2.2-1,3.1,1.5
	C192.4,340.8,176.3,349.9,160.4,359.5z"/>
<path opacity="0.5" fill="#54A346" d="M58.3,299.8c-0.5-0.9-0.8-1.6-1.2-2.3c0.2-0.2,0.3-0.4,0.5-0.5c4.1-2.4,8.2-4.9,12.4-7.3
	c3.3-1.9,6.6-3.8,9.9-5.7c4.4-2.6,8.7-5.2,13.1-7.8c3.2-1.9,6.4-3.9,9.6-5.8c0,0,0.1-0.1,0.1-0.1c2.2-1.1,2.3-1.7,3.5,1.3
	c-2,1.2-4,2.5-6.1,3.7c-4.6,2.7-9.2,5.3-13.8,8c-4.7,2.7-9.4,5.5-14.1,8.3c-3.2,1.9-6.3,3.8-9.5,5.7
	C61.3,298.1,59.8,298.9,58.3,299.8z"/>
<path opacity="0.5" fill="#54A346" d="M159,237.6c15.9-9.4,31.8-18.7,47.8-28.1c0.3,0.5,0.7,0.8,0.9,1.3c0.6,1.1,0.5,1.3-0.6,1.9
	c-4.5,2.6-9,5.2-13.5,7.8c-3.1,1.8-6.3,3.7-9.4,5.6c-2.7,1.6-5.5,3.2-8.2,4.8c-4.1,2.4-8.2,4.9-12.4,7.4c-0.8,0.5-1.7,1-2.5,1.5
	c-0.5,0.3-0.9,0.2-1.2-0.3C159.7,238.9,159.4,238.3,159,237.6z"/>
<path opacity="0.5" fill="#54A346" d="M192.1,2.5c0.5-1,0.6-2,1.7-2.4c15.8,9.3,31.6,18.6,47.6,28c-0.6,0.9-1.1,1.6-1.7,2.4
	C223.8,21.2,208,11.9,192.1,2.5z"/>
<path opacity="0.5" fill="#54A346" d="M309,388.5c0.5,0.8,0.9,1.4,1.4,2.2c-1.3,0.8-2.5,1.6-3.7,2.3c-2.9,1.7-5.8,3.4-8.7,5.1
	c-2.5,1.5-5.1,3-7.6,4.5c-3.5,2.1-7,4.1-10.4,6.2c-2.6,1.5-5.2,3-7.8,4.5c-2.6,1.6-5.2,3.2-7.8,4.8c-0.5,0.3-1.1,0.6-1.9,0.9
	c-0.5-0.8-0.9-1.6-1.5-2.5c0.9-0.6,1.7-1.2,2.6-1.7c3.9-2.3,7.9-4.5,11.8-6.8c6.1-3.6,12.2-7.2,18.3-10.8c4.3-2.5,8.6-5.1,12.9-7.7
	C307.4,389.3,308.1,389,309,388.5z"/>
<path opacity="0.5" fill="#54A346" d="M58.4,419.1c-0.5-0.9-0.9-1.6-1.4-2.6c15.9-9.3,31.8-18.7,47.9-28.1c0.5,0.8,1,1.5,1.6,2.4
	C90.4,400.3,74.5,409.6,58.4,419.1z"/>
<path opacity="0.5" fill="#54A346" d="M73.5,330.4c15.9,9.4,31.7,18.7,47.7,28c-0.5,0.9-0.9,1.7-1.4,2.6c-4-2.4-8-4.8-11.9-7.1
	c-3.5-2-7-4-10.5-6c-1.8-1-3.5-2.2-5.3-3.2c-2.6-1.5-5.2-3-7.8-4.6c-3.8-2.3-7.6-4.5-11.5-6.8c-0.7-0.4-0.9-0.9-0.3-1.5
	C72.7,331.4,73,331,73.5,330.4z"/>
<path opacity="0.5" fill="#54A346" d="M275.9,332.8c1.2-2.5,1.2-2.6,3.5-1.2c5.9,3.5,11.8,7,17.7,10.4c7.2,4.2,14.4,8.4,21.6,12.6
	c2.1,1.2,4.1,2.5,6.3,3.9c-0.4,0.8-0.7,1.4-1.2,2.3c-0.9-0.4-1.7-0.6-2.4-1.1c-5.3-3.1-10.6-6.2-15.8-9.3c-3.2-1.9-6.3-3.9-9.5-5.7
	c-2.5-1.5-5-2.9-7.5-4.3c-3.3-2-6.7-3.9-10-5.9C277.8,333.9,276.9,333.4,275.9,332.8z"/>
<path opacity="0.5" fill="#54A346" d="M121.1,119.9c-0.4,0.7-0.5,1.1-0.8,1.6c-0.5,0.7-1.1,0.8-1.8,0.3c-2.9-1.8-5.8-3.5-8.8-5.3
	c-2.5-1.5-5.1-3-7.6-4.5c-2.8-1.7-5.7-3.3-8.5-5c-2.5-1.5-5.1-3-7.6-4.5c-3.4-2-6.9-4.1-10.3-6.1c-0.9-0.5-1.8-1-2.7-1.6
	c-1.2-0.8-1.2-0.8-0.3-2.1c0.2-0.3,0.4-0.5,0.7-1C89.3,101.2,105.1,110.5,121.1,119.9z"/>
<path opacity="0.5" fill="#54A346" d="M241.1,266.5c-0.1,0.3-0.1,0.4-0.1,0.5c-0.9,1.9-1.2,2.1-3,1c-3.4-2-6.8-4-10.1-6
	c-2.5-1.5-5.1-3-7.6-4.5c-3.4-2-6.9-4.1-10.3-6.1c-2.5-1.5-5.1-3-7.6-4.5c-2.9-1.7-5.8-3.4-8.6-5.1c-0.5-0.3-1-0.6-1.6-0.9
	c0.4-0.9,0.5-1.9,1.6-2.4C209.5,247.9,225.3,257.2,241.1,266.5z"/>
<path opacity="0.5" fill="#54A346" d="M91.7,59.7c16,9.4,31.8,18.6,47.5,27.9c0,0.3,0,0.4,0,0.5c-1.4,2.6-1.3,2.1-3.2,1
	c-2.4-1.3-4.7-2.8-7-4.2c-2.8-1.6-5.6-3.2-8.4-4.9c-3.6-2.1-7.2-4.3-10.9-6.5c-3.2-1.9-6.4-3.7-9.6-5.5c-3.1-1.8-6.1-3.7-9.2-5.5
	c-0.6-0.4-0.8-0.8-0.4-1.4C90.8,60.7,91.2,60.3,91.7,59.7z"/>
<path opacity="0.5" fill="#54A346" d="M294.2,300.5c1-2.8,1.2-2.5,3.4-1.2c2.6,1.5,5.1,3,7.7,4.5c7.3,4.3,14.5,8.7,21.8,13
	c4.2,2.5,8.5,4.8,12.7,7.3c1.1,0.7,2.2,1.4,3.4,2.3c-0.4,0.7-0.7,1.4-1.1,2.2c-0.6-0.2-1.2-0.3-1.6-0.5c-4-2.4-7.9-4.8-11.9-7.1
	c-3.2-1.9-6.4-3.7-9.6-5.5c-4.4-2.6-8.8-5.2-13.2-7.9c-3.4-2-6.9-4-10.3-6C295,301.2,294.6,300.8,294.2,300.5z"/>
<path opacity="0.5" fill="#54A346" d="M244.3,267.5c-0.5-0.8-0.9-1.5-1.4-2.3c0.4-0.3,0.6-0.6,1-0.8c3.3-2,6.6-4,9.9-5.9
	c3.4-2,6.8-4.1,10.2-6.1c3.2-1.9,6.4-3.7,9.6-5.5c2.8-1.6,5.5-3.4,8.3-5c1.9-1.1,3.9-2.2,5.9-3.3c0.8-0.5,1.7-1,2.7-1.6
	c0.5,0.8,1,1.5,1.6,2.4C276.1,248.8,260.3,258.1,244.3,267.5z"/>
<path opacity="0.5" fill="#54A346" d="M173.8,511.7c0.5-0.9,1-1.7,1.5-2.5c16,9.4,31.9,18.7,47.9,28.1c-0.5,0.8-0.9,1.6-1.5,2.5
	C205.7,530.4,189.8,521.1,173.8,511.7z"/>
<path opacity="0.5" fill="#54A346" d="M241.1,505c-0.2,0.6-0.3,0.9-0.5,1.2c-0.5,1-0.8,1.2-1.9,0.6c-1.2-0.6-2.5-1.3-3.7-2
	c-5-3-10-6-15.1-8.9c-3-1.8-6.1-3.5-9.2-5.3c-5.4-3.1-10.8-6.3-16.1-9.5c-0.9-0.5-1.7-1.1-2.7-1.8c0.5-0.9,1-1.6,1.5-2.5
	C209.5,486.4,225.2,495.6,241.1,505z"/>
<path opacity="0.5" fill="#54A346" d="M188.6,177.3c0.5,0.8,0.9,1.5,1.3,2.4c-0.9,0.7-1.8,1.4-2.7,1.9c-5.1,2.9-10.2,5.8-15.2,8.7
	c-5.8,3.4-11.6,6.8-17.3,10.2c-3.3,2-6.6,4-9.9,6c-0.8,0.5-1.6,0.8-2.6,1.3c-0.4-0.8-0.8-1.6-1.3-2.5
	C156.9,196,172.7,186.7,188.6,177.3z"/>
<path opacity="0.5" fill="#54A346" d="M58.4,180.5c-0.5-0.9-0.9-1.6-1.4-2.5c15.9-9.4,31.8-18.7,47.9-28.1c0.5,0.9,1,1.6,1.6,2.4
	C90.4,161.7,74.5,171.1,58.4,180.5z"/>
<path opacity="0.5" fill="#54A346" d="M173.8,153.9c0.5-0.8,0.9-1.4,1.4-2.2c0.5,0.2,1,0.3,1.4,0.5c5.3,3.2,10.7,6.4,16,9.5
	c4.2,2.4,8.4,4.8,12.5,7.2c2.3,1.3,4.5,2.7,6.7,4c3.5,2.1,7,4.1,10.5,6.1c0.2,0.1,0.4,0.3,0.7,0.5c-0.4,0.7-0.8,1.5-1.4,2.4
	C205.7,172.7,189.8,163.3,173.8,153.9z"/>
<path opacity="0.5" fill="#54A346" d="M139.2,326.3c-1.3,2.4-1,2.6-3.5,1.2c-4.3-2.5-8.6-5.1-13-7.7c-4.1-2.4-8.1-4.9-12.2-7.3
	c-2.5-1.5-5-2.9-7.5-4.3c-2.8-1.7-5.7-3.3-8.5-5c-1.2-0.7-2.4-1.4-3.6-2.1c-0.6-0.3-0.9-0.7-0.5-1.4c0.7-1.2,1.2-1.6,1.9-1.2
	c1.6,0.9,3.2,1.8,4.8,2.8c5.7,3.3,11.4,6.7,17.1,10.1c4.9,2.9,9.9,5.9,14.8,8.8c2.9,1.7,5.9,3.4,8.8,5.2
	C138.3,325.6,138.7,326,139.2,326.3z"/>
<path opacity="0.5" fill="#54A346" d="M139.1,206.8c-0.9,2.7-1,2.7-3.3,1.3c-4.2-2.5-8.4-4.9-12.6-7.3c-3.5-2.1-7.1-4.1-10.6-6.2
	c-2.7-1.6-5.3-3.2-8-4.8c-2.6-1.5-5.2-3-7.8-4.5c-2-1.1-3.9-2.2-5.9-3.3c-0.2-0.1-0.4-0.4-0.6-0.6c0-0.2,0-0.4,0.1-0.5
	c0.8-2.1,1.3-2.2,3.2-1c3.5,2.1,7,4.2,10.4,6.2c4.2,2.5,8.3,5,12.5,7.5c4,2.3,8,4.6,12.1,6.9c3.4,2,6.8,4,10.2,6
	C138.9,206.6,139,206.8,139.1,206.8z"/>
<path opacity="0.5" fill="#54A346" d="M343.1,206.8c-0.5,1.6-0.5,1.6-1.7,2.4c-15.7-9.2-31.5-18.5-47.2-27.7c0-0.3,0-0.4,0-0.5
	c1.1-2.1,1-2.4,3.3-1.1c5.8,3.5,11.6,6.9,17.4,10.3c4.7,2.8,9.5,5.6,14.3,8.4c2.6,1.5,5.2,3.1,7.8,4.6
	C338.9,204.4,341,205.6,343.1,206.8z"/>
<path opacity="0.5" fill="#54A346" d="M192.1,360.3c0.1-0.3,0.2-0.4,0.2-0.5c1.1-1.9,1.2-1.9,3.1-0.9c3.9,2.2,7.8,4.4,11.6,6.7
	c5.9,3.5,11.8,6.9,17.7,10.4c5.1,3,10.3,6.1,15.4,9.1c1.1,0.6,1.1,0.8,0.6,1.9c-0.2,0.4-0.4,0.8-0.8,1.4
	C223.9,379,208,369.7,192.1,360.3z"/>
<path opacity="0.5" fill="#54A346" d="M262.4,180.5c-0.5-0.9-0.9-1.6-1.5-2.4c15.9-9.3,31.8-18.7,47.9-28.1c0.5,0.9,0.9,1.5,1.4,2.4
	c-0.5,0.4-1,0.8-1.5,1.1c-3.4,2-6.8,3.9-10.2,5.9c-4.4,2.6-8.9,5.2-13.3,7.9c-3.1,1.9-6.2,3.7-9.4,5.6c-2.6,1.6-5.3,3.1-7.9,4.6
	C266.1,178.3,264.3,179.4,262.4,180.5z"/>
<path opacity="0.5" fill="#54A346" d="M188.6,415.8c0.3,0.4,0.5,0.5,0.6,0.7c0.8,1.7,1.2,1.8-0.8,2.9c-4.1,2.2-8,4.6-12,7
	c-3.6,2.1-7.3,4.3-10.9,6.4c-2.9,1.7-5.9,3.4-8.9,5.1c-4.2,2.5-8.4,5-12.7,7.6c-1.3,0.8-1.7,0.7-2.5-0.7c-0.1-0.3-0.3-0.5-0.5-1
	c1.1-0.7,2.2-1.4,3.3-2c2.7-1.6,5.4-3.2,8-4.7c3.4-2,6.8-3.9,10.2-5.9c3.4-2,6.8-4.1,10.3-6.1c3.4-2,6.9-4,10.3-6
	c1.1-0.6,2.2-1.3,3.3-2C187,416.7,187.7,416.3,188.6,415.8z"/>
<path opacity="0.5" fill="#54A346" d="M244.5,505.9c-1.8-2.3-2.1-2.1,0.4-3.6c4-2.3,7.9-4.7,11.9-7c2.4-1.4,4.9-2.8,7.3-4.2
	c3.5-2,6.9-4.1,10.4-6.2c2.7-1.6,5.4-3.1,8.1-4.7c1.9-1.1,3.8-2.4,5.7-3.5c0.7-0.4,1.4-0.8,2.2-1.2c0.5,0.9,1,1.6,1.5,2.5
	C276.2,487.3,260.4,496.6,244.5,505.9z"/>
<path opacity="0.5" fill="#54A346" d="M189.9,299.2c-15.9,9.3-31.6,18.6-47.5,27.9c-0.5-0.8-1-1.6-1.6-2.5c1.8-1.1,3.4-2.1,5.1-3
	c3.9-2.3,7.9-4.5,11.8-6.8c5.3-3.1,10.5-6.2,15.8-9.3c4-2.3,7.9-4.7,11.9-7c0.4-0.3,0.9-0.5,1.3-0.8
	C188.8,296.6,188.9,296.7,189.9,299.2z"/>
<path opacity="0.5" fill="#54A346" d="M160.3,478.4c-0.4-0.7-0.8-1.4-1.3-2.3c4-2.4,7.9-4.7,11.8-7.1c4-2.3,8-4.6,12-6.9
	c4-2.3,7.9-4.8,11.9-7.1c4-2.3,8-4.6,12.2-7c0.4,0.7,0.9,1.4,1.3,2.2C207.1,451.4,163,477.3,160.3,478.4z"/>
<path opacity="0.5" fill="#54A346" d="M192.2,121.8c0-0.3,0-0.3,0-0.4c1-2.1,1.3-2.2,3.2-1.1c4.6,2.7,9.2,5.3,13.8,8
	c5.1,3,10.2,6,15.3,9c3.2,1.9,6.4,3.8,9.5,5.7c1.8,1.1,3.6,2.1,5.4,3.1c1.8,1,1.8,1,0.9,2.8c-0.1,0.2-0.2,0.4-0.5,0.8
	C223.9,140.6,208,131.1,192.2,121.8z"/>
<path opacity="0.5" fill="#54A346" d="M86.7,237c0.5,0.9,0.8,1.5,1.2,2.2c-0.5,0.4-1,0.8-1.5,1.1c-2.9,1.7-5.8,3.4-8.6,5.1
	c-2.5,1.5-5.1,2.9-7.6,4.4c-1.4,0.8-2.9,1.7-4.3,2.6c-3.2,1.9-6.5,3.8-9.7,5.7c-3.3,1.9-6.5,3.9-9.8,5.9c-1.7,1-3.4,2-5.1,3
	c-0.6,0.3-1.1,0.3-1.4-0.4c-0.7-1.2-0.7-1.7,0-2.1c1.3-0.9,2.6-1.7,4-2.5c4.7-2.7,9.4-5.4,14.1-8.1c4.2-2.4,8.3-5,12.5-7.4
	c1.8-1.1,3.6-2,5.4-3.1c2.7-1.6,5.3-3.2,8-4.8C84.6,238.1,85.6,237.6,86.7,237z"/>
<path opacity="0.5" fill="#54A346" d="M121.1,477.7c-0.5,0.9-0.9,1.6-1.4,2.5c-16-9.2-31.8-18.6-47.8-28c0.5-0.9,0.8-1.6,1.3-2.6
	C89.3,459,105.1,468.3,121.1,477.7z"/>
<path opacity="0.5" fill="#54A346" d="M152,183.9c-0.8,0-1.4,0-2.2,0c0-22.2,0-44.3,0-66.5c0.7,0,1.4,0,2.1,0
	C152.2,118.7,152.4,181.3,152,183.9z"/>
<path opacity="0.5" fill="#54A346" d="M121.1,239.2c-1.3,2.4-1,2.7-3.5,1.3c-3.4-1.9-6.8-3.9-10.2-5.9c-2.6-1.6-5.3-3.1-7.9-4.7
	c-2.5-1.5-5-2.9-7.5-4.4c-2.2-1.3-4.4-2.7-6.7-4c-2.5-1.5-5-2.9-7.5-4.3c-1.7-1-3.4-1.9-5.1-2.9c-0.3-0.2-0.5-0.5-0.8-0.8
	c0.4-0.7,0.7-1.4,1.2-2.3C89.3,220.5,105.2,229.8,121.1,239.2z"/>
<path opacity="0.5" fill="#54A346" d="M131.7,117.4c0.2,0,0.4-0.1,0.6-0.1c0.5,0,0.9,0,1.3,0c0.4,1.4,0.6,62.2,0.2,66.6
	c-0.7,0-1.4,0-2.1,0C131.3,182.6,131.3,119.3,131.7,117.4z"/>
<path opacity="0.5" fill="#54A346" d="M343.3,445.4c-0.5,0.8-0.9,1.6-1.5,2.5c-16-9.4-31.8-18.7-47.7-28c0.2-0.5,0.4-0.9,0.6-1.3
	c0.2-0.3,0.5-0.6,0.9-1.1C311.5,426.6,327.3,436,343.3,445.4z"/>
<path opacity="0.5" fill="#54A346" d="M277.4,449.6c16,9.4,31.7,18.6,47.7,28c-0.5,0.9-0.9,1.7-1.3,2.6c-16-9.4-31.9-18.7-48-28.2
	C276.3,451.2,276.8,450.5,277.4,449.6z"/>
<path opacity="0.5" fill="#54A346" d="M149.8,475.2c0.7-0.1,1.4-0.2,2-0.2c0.4,1.4,0.6,63.2,0.2,66.6c-0.7,0-1.4,0-2.1,0
	C149.6,540.4,149.4,478.3,149.8,475.2z"/>
<path opacity="0.5" fill="#54A346" d="M40.4,148.2c-0.6-0.9-1-1.6-1.5-2.4c16-9.4,31.8-18.8,47.8-28c0.4,0.7,0.6,1,0.8,1.5
	c0.2,0.4,0.3,0.7,0.4,1.2C72.1,129.6,56.4,138.8,40.4,148.2z"/>
<path opacity="0.5" fill="#54A346" d="M190,60.6c-15.9,9.3-31.7,18.6-47.6,28c-0.3-0.5-0.6-0.8-0.8-1.2c-0.2-0.4-0.4-0.8-0.7-1.3
	c1.9-1.1,3.7-2.1,5.5-3.2c4.9-2.9,9.8-5.8,14.7-8.7c3.4-2,6.9-3.9,10.4-5.9c3.2-1.9,6.4-3.8,9.6-5.8c1.8-1.1,3.7-2.2,5.5-3.2
	C188.6,58.1,188.9,58.2,190,60.6z"/>
<path opacity="0.5" fill="#54A346" d="M325,239.1c-0.3,0.6-0.4,1-0.6,1.3c-0.6,1.1-0.8,1.1-1.9,0.5c-4.5-2.6-8.9-5.1-13.4-7.7
	c-3.2-1.9-6.3-3.8-9.5-5.7c-2.4-1.4-4.9-2.8-7.3-4.2c-2.8-1.7-5.7-3.3-8.5-5c-2.4-1.4-4.9-2.9-7.3-4.3c-0.2-0.1-0.4-0.3-0.7-0.6
	c0.5-0.7,0.9-1.4,1.5-2.3C293.2,220.5,309,229.7,325,239.1z"/>
<path opacity="0.5" fill="#54A346" d="M243,384.2c15.9-9.3,31.6-18.6,47.5-27.9c0.5,0.9,1,1.6,1.5,2.4c-1.5,0.9-2.9,1.8-4.3,2.6
	c-2.6,1.5-5.2,3-7.8,4.5c-5.4,3.1-10.8,6.3-16.1,9.5c-5.4,3.2-10.8,6.4-16.2,9.7c-0.8,0.5-1.6,0.9-2.4,1.4c-0.5,0.3-0.9,0.2-1.2-0.3
	C243.6,385.4,243.3,384.9,243,384.2z"/>
<path opacity="0.5" fill="#54A346" d="M243,145.7c15.9-9.3,31.7-18.6,47.6-27.9c0.5,0.9,1,1.6,1.5,2.5c-1.6,0.9-3,1.8-4.5,2.7
	c-3.2,1.8-6.4,3.7-9.6,5.5c-4.4,2.6-8.8,5.2-13.3,7.8c-3.5,2.1-6.9,4.2-10.4,6.2c-3,1.8-6,3.4-9,5.2c-0.7,0.4-1.1,0.3-1.4-0.4
	C243.6,146.8,243.3,146.3,243,145.7z"/>
<path opacity="0.5" fill="#54A346" d="M139.1,445.3c-0.8,2.5-1.3,2.7-3.4,1.4c-4-2.6-8.2-4.7-12.3-7.1c-3.2-1.9-6.3-3.9-9.5-5.7
	c-2.6-1.5-5.2-3-7.8-4.5c-2.6-1.5-5.3-3.1-7.9-4.7c-2.5-1.5-5-2.9-7.5-4.4c-0.2-0.1-0.3-0.3-0.6-0.5c0.4-0.7,0.8-1.5,1.4-2.4
	C107.5,426.8,123.3,436.1,139.1,445.3z"/>
<path opacity="0.5" fill="#54A346" d="M40.4,386.7c-0.6-0.9-1-1.6-1.6-2.4c15.9-9.3,31.7-18.6,47.8-28c0.5,0.9,0.9,1.7,1.4,2.5
	C72.1,368.1,56.4,377.3,40.4,386.7z"/>
<path opacity="0.5" fill="#54A346" d="M131.5,236.8c0.8,0,1.5,0,2.3,0c0,22.1,0,44.1,0,66.3c-0.7,0-1.4,0-2.1,0c0,0-0.1-0.1-0.1-0.1
	c0,0-0.1-0.1-0.1-0.1c0-0.2-0.1-0.3-0.1-0.5c0-21.5,0-43.1,0-64.6C131.4,237.5,131.5,237.3,131.5,236.8z"/>
<path opacity="0.5" fill="#54A346" d="M131.6,475.3c0.8,0,1.4,0,2.2,0c0,22.1,0,44.2,0,66.3c-0.7,0-1.4,0-2.2,0
	C131.4,540.4,131.3,477.8,131.6,475.3z"/>
<path opacity="0.5" fill="#54A346" d="M149.8,236.9c0.4,0,0.8-0.1,1.1-0.1c0.3,0,0.7,0.1,1.1,0.1c0,22.1,0,44.1,0,66.3
	c-0.7,0-1.4,0-2.1,0C149.6,301.9,149.4,239.8,149.8,236.9z"/>
<path opacity="0.5" fill="#54A346" d="M133.8,422.4c-0.8,0-1.5,0-2.2,0c0-22.1,0-44.1,0-66.2c0.7,0,1.4,0,2.2,0
	C134,357.4,134.1,420.2,133.8,422.4z"/>
<path opacity="0.5" fill="#54A346" d="M152,422.5c-0.7,0-1.4,0-2,0c-0.1-0.1-0.1-0.1-0.1-0.2c0,0-0.1-0.1-0.1-0.1
	c0-21.4-0.1-42.9-0.1-64.3c0-0.5,0-1,0-1.7c0.8,0,1.5,0,2.3,0C152.2,357.5,152.3,420.4,152,422.5z"/>
<path opacity="0.5" fill="#54A346" d="M124.7,297.9c-0.8,0-1.6,0-2.4,0c0-18.7,0-37.3,0-56.1c0.8,0,1.5-0.1,2.3-0.1
	C124.9,243,125.1,295.5,124.7,297.9z"/>
<path opacity="0.5" fill="#54A346" d="M365.2,297.9c-0.8,0-1.6,0-2.4,0c0-18.7,0-37.3,0-56.1c0.8,0,1.6,0,2.3,0
	C365.5,243,365.6,295.5,365.2,297.9z"/>
<path opacity="0.5" fill="#54A346" d="M161.4,297.9c-0.9,0-1.7,0-2.5,0c0-18.7,0-37.3,0-56.1c0.8,0,1.6,0,2.5,0
	C161.4,260.6,161.4,279.2,161.4,297.9z"/>
<path opacity="0.5" fill="#54A346" d="M56.8,301.5c0.9,0,1.7,0,2.4,0c0.4,1.3,0.5,52.6,0.2,56.1c-0.8,0-1.6,0-2.5,0
	C56.8,339,56.8,320.4,56.8,301.5z"/>
<path opacity="0.5" fill="#54A346" d="M122.2,122.6c0.8,0,1.6,0,2.3,0c0.4,1.2,0.6,52.7,0.2,56c-0.8,0-1.5,0-2.3,0
	C122,177.4,121.9,125.9,122.2,122.6z"/>
<path opacity="0.5" fill="#54A346" d="M124.7,417.2c-0.9,0-1.7,0-2.5,0c0-18.7,0-37.3,0-56c0.9,0,1.6,0,2.5,0
	C124.7,379.8,124.7,398.4,124.7,417.2z"/>
<path opacity="0.5" fill="#54A346" d="M365.3,417.2c-0.9,0-1.7,0-2.5,0c0-18.7,0-37.3,0-56c0.9,0,1.6,0,2.5,0
	C365.3,379.8,365.3,398.4,365.3,417.2z"/>
<path opacity="0.5" fill="#54A346" d="M59.2,119.2c-0.8,0-1.6,0-2.4,0c0-18.7,0-37.3,0-56.1c0.8,0,1.6,0,2.4,0
	C59.5,64.3,59.6,117.1,59.2,119.2z"/>
<path opacity="0.5" fill="#54A346" d="M56.8,182.4c0.9,0,1.7,0,2.5,0c0,18.7,0,37.3,0,56c-0.9,0-1.7,0-2.5,0
	C56.8,219.7,56.8,201.1,56.8,182.4z"/>
<path opacity="0.5" fill="#54A346" d="M122.3,3.3c0.8,0,1.5,0,2.4,0c0,18.7,0,37.3,0,56.1c-0.8,0-1.6,0-2.4,0
	C122,58.2,121.9,5.5,122.3,3.3z"/>
<path opacity="0.5" fill="#54A346" d="M224.2,238.3c0-18.7,0-37.2,0-55.9c0.4-0.1,0.8-0.2,1.2-0.2c0.4,0,0.8,0,1.4,0.1
	c0,0.5,0.1,1,0.1,1.5c0,17.6,0,35.2,0,52.7C226.9,238.6,226.7,238.7,224.2,238.3z"/>
<path opacity="0.5" fill="#54A346" d="M158.8,417.2c0-18.7,0-37.3,0-56c0.9,0,1.7,0,2.5,0c0,0.5,0.1,1,0.1,1.4c0,17.6,0,35.2,0,52.7
	c0,0.2,0,0.3,0,0.5c-0.1,1.2-0.2,1.4-1.4,1.4C159.7,417.2,159.4,417.2,158.8,417.2z"/>
<path opacity="0.5" fill="#54A346" d="M161.4,59.4c-0.6,0-1,0.1-1.4,0.1c-0.3,0-0.7-0.1-1.1-0.1c0-18.7,0-37.3,0-56
	c0.2-0.1,0.4-0.2,0.6-0.2c1.9-0.1,2,0,2,1.9c0,17.6,0,35.2,0,52.8C161.5,58.4,161.4,58.8,161.4,59.4z"/>
<path opacity="0.5" fill="#54A346" d="M224.3,301.6c0.9,0,1.7,0,2.5,0c0.1,0.5,0.1,1,0.1,1.4c0,17.7,0,35.3,0,53
	c0,1.9-0.3,2.1-2.7,1.6C224.3,339,224.3,320.3,224.3,301.6z"/>
<path opacity="0.5" fill="#54A346" d="M158.8,178.6c0-18.7,0-37.2,0-55.9c0.9,0,1.6,0,2.5,0c0,0.5,0.1,0.9,0.1,1.4
	c0,17.6,0,35.2,0,52.8C161.5,178.8,161.3,178.9,158.8,178.6z"/>
<path opacity="0.5" fill="#54A346" d="M56.8,420.8c0.9,0,1.7,0,2.5,0c0,18.6,0,37.2,0,55.8c-0.7,0.1-1.3,0.2-1.9,0.3
	c-0.2,0-0.3-0.1-0.6-0.1C56.8,458.2,56.8,439.6,56.8,420.8z"/>
<path opacity="0.5" fill="#54A346" d="M158.9,480.6c0.8,0,1.6,0,2.3,0c0.4,1.3,0.5,53.1,0.1,55.8c-0.8,0-1.5,0-2.3,0
	C158.7,535.2,158.5,483.4,158.9,480.6z"/>
<path opacity="0.5" fill="#54A346" d="M362.8,536.4c0-18.6,0-37.1,0-55.7c0.8,0,1.6,0,2.4,0c0.4,1.2,0.5,52.8,0.1,55.7
	C364.5,536.4,363.7,536.4,362.8,536.4z"/>
<path opacity="0.5" fill="#54A346" d="M365.3,178.7c-0.9,0-1.7,0-2.5,0c0-18.6,0-37.2,0-55.8c0.9,0,1.6,0,2.5,0
	C365.3,141.5,365.3,160,365.3,178.7z"/>
<path opacity="0.5" fill="#54A346" d="M224.4,420.8c0.8,0,1.6,0,2.3,0c0.3,1.3,0.4,53.7,0.1,55.8c-0.8,0-1.5,0-2.3,0
	C224.1,475.4,224,423.1,224.4,420.8z"/>
<path opacity="0.5" fill="#54A346" d="M326.3,297.8c0-18.7,0-37.3,0-56c0.8,0,1.4,0,2.1,0c0,0,0.1,0.1,0.1,0.1c0,0,0.1,0.1,0.1,0.1
	c0,0.3,0.1,0.6,0.1,0.9c0,18.1,0,36.2,0,54.4c0,0.2-0.1,0.3-0.2,0.5C327.8,297.8,327.1,297.8,326.3,297.8z"/>
<path opacity="0.5" fill="#54A346" d="M22.5,357.7c-0.6,0-1.3,0-2,0c-0.4-1.3-0.6-51.9-0.2-56c0.7,0,1.4,0,2.1,0
	C22.9,302.8,22.9,355.8,22.5,357.7z"/>
<path opacity="0.5" fill="#54A346" d="M20.4,63.1c0.8,0,1.5,0,2.2,0c0,18.7,0,37.3,0,56c-0.8,0-1.4,0-2.1,0c0,0-0.1-0.1-0.1-0.1
	c0,0-0.1-0.1-0.1-0.1c0-0.2-0.1-0.5-0.1-0.7c0-18.2,0-36.4,0-54.5C20.3,63.5,20.3,63.4,20.4,63.1z"/>
<path opacity="0.5" fill="#54A346" d="M263.2,357.7c-0.8,0-1.4,0-2.1,0c-0.4-1.3-0.6-52.3-0.2-56c0.7,0,1.4,0,2.1,0
	C263.4,302.9,263.6,353.9,263.2,357.7z"/>
<path opacity="0.5" fill="#54A346" d="M261.1,182.3c0.7,0,1.4,0,2,0c0.4,1.2,0.6,53,0.2,56c-0.7,0-1.4,0-2.1,0
	C260.7,237,260.7,184.2,261.1,182.3z"/>
<path opacity="0.5" fill="#54A346" d="M20.3,182.3c0.9,0,1.5,0,2.1,0c0.1,0.1,0.1,0.1,0.2,0.2c0,0,0.1,0.1,0.1,0.1
	c0,0.5,0.1,0.9,0.1,1.4c0,18,0,36-0.1,54c0,0.1-0.1,0.2-0.3,0.5c-0.6-0.1-1.3-0.1-2.1-0.2C20.3,219.6,20.3,201,20.3,182.3z"/>
<path opacity="0.5" fill="#54A346" d="M22.6,476.7c-0.8,0-1.4,0-2.2,0c0-18.6,0-37.2,0-55.8c0.3-0.1,0.5-0.1,0.7-0.1
	c0.5,0,0.9,0,1.3,0c0.1,0.1,0.2,0.2,0.2,0.2c0,0,0.1,0.1,0.1,0.1c0,0.2,0.1,0.5,0.1,0.7c0,18.1,0,36.1,0,54.2
	C22.8,476.2,22.7,476.3,22.6,476.7z"/>
<path opacity="0.5" fill="#54A346" d="M326.4,361.3c0.8,0,1.5,0,2.1,0c0.4,1.4,0.4,53.9,0.1,55.8c-0.6,0-1.3,0-2,0
	c0,0-0.1-0.1-0.1-0.1c0,0-0.1-0.1-0.1-0.1c0-0.2-0.1-0.3-0.1-0.5c0-18.1,0-36.1,0-54.2C326.2,362,326.3,361.7,326.4,361.3z"/>
<path opacity="0.5" fill="#54A346" d="M261,420.8c0.7,0,1.4,0,2,0c0.1,0.1,0.1,0.1,0.1,0.2c0,0,0.1,0.1,0.1,0.1c0,18,0.1,36,0.1,54
	c0,0.5,0,0.9-0.1,1.5c-0.8,0-1.5,0-2.2,0C260.7,475.3,260.7,422.8,261,420.8z"/>
<path opacity="0.5" fill="#54A346" d="M328.5,178.7c-0.7,0-1.4,0-2,0c-0.4-1.2-0.6-52.8-0.2-55.8c0.7,0,1.4,0,2.1,0
	C328.9,124.2,328.9,176.8,328.5,178.7z"/>
<path opacity="0.5" fill="#54A346" d="M326.4,480.6c0.8,0,1.4,0,2.2,0c0,18.6,0,37.1,0,55.7c-0.7,0-1.4,0-2.1,0
	C326.2,535.2,326,483.3,326.4,480.6z"/>
<path opacity="0.5" fill="#54A346" d="M309,518.3c0.5,0.8,0.9,1.6,1.4,2.5c-0.8,0.5-1.4,1-2.1,1.4c-4.9,2.8-9.7,5.6-14.6,8.4
	c-4.7,2.8-9.5,5.5-14.2,8.3c-2.3,1.4-4.5,2.7-6.8,4.1c-1.1,0.7-1.1,0.7-1.8-0.5c-0.2-0.3-0.4-0.6-0.5-0.9c-0.1-0.1-0.1-0.2-0.1-0.6
	c6.4-3.7,12.8-7.5,19.2-11.3C295.9,526,302.3,522.2,309,518.3z"/>
<path opacity="0.5" fill="#54A346" d="M214,304.1c-0.5,0.8-0.9,1.5-1.3,2.2c-1.6,0.2-2.5-1-3.6-1.6c-3.8-2.1-7.6-4.4-11.4-6.7
	c-3.1-1.9-6.2-3.7-9.4-5.6c-2.7-1.6-5.4-3.1-8.1-4.7c-2.1-1.2-4.2-2.4-6.4-3.7c0.4-0.9,0.8-1.6,1.2-2.4c1.5,0.1,2.5,1.1,3.6,1.7
	c2.2,1.2,4.3,2.6,6.4,3.8c5,3,10.1,6,15.1,9c4.2,2.5,8.5,4.8,12.7,7.3C213.2,303.6,213.5,303.8,214,304.1z"/>
<path opacity="0.5" fill="#54A346" d="M207,220.2c0.5,1,0.8,1.7,1.3,2.6c-1.5,0.9-3,1.8-4.5,2.7c-4.2,2.5-8.5,5-12.7,7.5
	c-2.5,1.5-5,2.9-7.5,4.4c-3.4,2-6.9,4.1-10.3,6.1c-0.9,0.5-1.8,1.1-2.7,1.6c-0.8,0.4-1.3,0.3-1.7-0.4c-0.3-0.4-0.4-0.9-0.8-1.6
	C181.1,235.4,193.9,227.8,207,220.2z"/>
<path opacity="0.5" fill="#54A346" d="M173.8,45.5c0.5-0.9,0.8-1.7,1.2-2.4c1.6,0.1,2.7,1.2,3.9,1.9c6.1,3.5,12.1,7.1,18.1,10.6
	c4,2.4,8,4.7,11.9,7.1c1.1,0.7,2.2,1.3,3.3,1.9c0.5,0.3,0.9,0.7,1.5,1c-0.4,0.8-0.7,1.4-1.1,2.3c-0.6-0.2-1.3-0.3-1.8-0.6
	c-2.9-1.7-5.8-3.5-8.8-5.2c-3.3-2-6.6-4-9.9-6c-2.5-1.5-5-2.9-7.5-4.3C181.2,49.8,177.6,47.7,173.8,45.5z"/>
<path opacity="0.5" fill="#54A346" d="M168.2,123.7c12.9-7.6,25.7-15.1,38.7-22.7c0.5,0.9,1,1.7,1.5,2.5
	c-13,7.6-25.7,15.2-38.6,22.6c-0.5-0.7-0.8-1.1-1.1-1.6C168.4,124.3,168.4,124,168.2,123.7z"/>
<path opacity="0.5" fill="#54A346" d="M99.3,56.9c1.4-2.7,1.3-2.6,3.7-1.3c6.1,3.6,12.3,7.2,18.4,10.8c5.4,3.2,10.9,6.4,16.3,9.6
	c0.4,0.3,0.9,0.6,1.5,1c-0.4,0.8-0.8,1.6-1.3,2.6C125,71.9,112.2,64.4,99.3,56.9z"/>
<path opacity="0.5" fill="#54A346" d="M67.7,305.1c-0.6-0.9-1-1.6-1.5-2.5c2-1.2,4-2.4,6-3.5c4.3-2.5,8.5-5,12.8-7.5
	c3.4-2,6.8-3.9,10.2-5.9c2.7-1.6,5.4-3.2,8-4.7c1.8-1.1,1.9-1,2.8,0.8c0.1,0.1,0.1,0.2,0.2,0.5c-0.9,0.7-1.9,1.4-2.9,2
	c-4.6,2.7-9.3,5.4-14,8.1c-3.4,2-6.8,4.1-10.3,6.1c-2.5,1.5-5,2.9-7.5,4.3C70.3,303.5,69.1,304.2,67.7,305.1z"/>
<path opacity="0.5" fill="#54A346" d="M271.5,424.3c-0.4-0.9-0.7-1.5-1.1-2.3c0.4-0.3,0.8-0.7,1.2-0.9c3.4-2,6.8-4.1,10.3-6.1
	c3.4-2,6.8-3.9,10.2-5.9c2.6-1.6,5.2-3.2,7.9-4.7c2.6-1.5,5.3-3.1,7.9-4.6c0.5-0.3,1-0.6,1.4-0.1c0.4,0.5,0.7,1.2,0.9,1.8
	c0,0.1-0.4,0.5-0.7,0.7c-2.6,1.5-5.1,2.9-7.7,4.4c-4,2.4-8,4.8-12.1,7.2c-1.8,1.1-3.7,2.1-5.6,3.2c-3.5,2.1-7,4.2-10.6,6.3
	C272.9,423.6,272.3,423.9,271.5,424.3z"/>
<path opacity="0.5" fill="#54A346" d="M106.3,401.6c-12.9,7.6-25.6,15.1-38.6,22.7c-0.6-0.8-1.1-1.6-1.6-2.4c1.6-1,3.1-1.9,4.6-2.7
	c5.9-3.4,11.7-6.8,17.6-10.3c3.2-1.9,6.3-3.8,9.5-5.7c1.9-1.1,3.9-2.3,5.8-3.4c1.4-0.8,1.5-0.7,2.3,0.7
	C106,400.9,106.1,401.2,106.3,401.6z"/>
<path opacity="0.5" fill="#54A346" d="M168.2,481.5c12.9-7.5,25.6-15,38.4-22.5c1.1,0.7,1.1,0.7,1.6,2.4c-1.4,0.8-2.8,1.7-4.2,2.5
	c-4.2,2.5-8.5,5-12.7,7.5c-2.5,1.5-5,2.9-7.5,4.4c-3.5,2.1-7,4.1-10.5,6.2c-0.8,0.5-1.6,0.9-2.4,1.4c-1.2,0.7-1.5,0.6-2.1-0.6
	C168.6,482.3,168.5,482,168.2,481.5z"/>
<path opacity="0.5" fill="#54A346" d="M66.1,183.4c1.1-0.7,2.1-1.3,3.1-1.8c6.2-3.6,12.3-7.2,18.5-10.8c5.1-3,10.2-6,15.3-9
	c2-1.2,2.1-1.1,3.2,1.4c-6.4,3.8-12.7,7.6-19.1,11.4c-6.4,3.8-12.9,7.5-19.5,11.3C67.1,185,66.6,184.2,66.1,183.4z"/>
<path opacity="0.5" fill="#54A346" d="M271.7,185.7c-0.2-0.2-0.4-0.2-0.4-0.3c-0.3-0.6-0.7-1.2-1.1-2c1.3-0.8,2.5-1.5,3.7-2.2
	c6.2-3.6,12.3-7.2,18.5-10.8c5.1-3,10.1-6,15.2-9c1.1-0.6,1.5-0.6,2.1,0.3c0.8,1.2,0.7,1.5-0.6,2.3c-4.2,2.4-8.4,4.9-12.6,7.4
	c-2.6,1.5-5.3,3.1-7.9,4.6c-2.6,1.5-5.1,3.2-7.7,4.7C277.8,182.4,274.7,184,271.7,185.7z"/>
<path opacity="0.5" fill="#54A346" d="M179.4,291.2c0.5,0.9,1,1.5,1.5,2.4c-0.8,0.6-1.4,1.1-2.2,1.6c-4.9,2.8-9.8,5.5-14.6,8.4
	c-4.9,2.9-9.7,5.8-14.6,8.7c-2,1.2-4,2.3-6,3.5c-0.3,0.2-0.7,0.3-1.3,0.5c-0.4-0.8-0.9-1.6-1.3-2.5
	C153.8,306.3,166.5,298.8,179.4,291.2z"/>
<path opacity="0.5" fill="#54A346" d="M270.2,302.5c2.6-1.5,5-2.8,7.3-4.2c2.8-1.7,5.6-3.4,8.4-5.1c3.1-1.8,6.3-3.6,9.5-5.4
	c3.4-2,6.9-4.1,10.3-6.1c0.6-0.4,1.3-0.8,2-1.1c1.1-0.6,1.5-0.5,2.1,0.6c0.2,0.3,0.3,0.6,0.5,1.1c-1.4,0.9-2.8,1.9-4.3,2.8
	c-4.9,2.8-9.8,5.6-14.6,8.4c-5.8,3.4-11.6,6.8-17.4,10.2c-0.4,0.3-0.9,0.6-1.3,0.9c-0.9,0.7-1.1,0.6-1.7-0.4
	C270.7,303.7,270.5,303.2,270.2,302.5z"/>
<path opacity="0.5" fill="#54A346" d="M276,462.9c1.1-2.8,1.2-2.6,3.5-1.3c4.1,2.4,8.2,4.7,12.3,7.1c5.8,3.4,11.7,6.9,17.5,10.3
	c2.1,1.3,4.3,2.6,6.6,4c-0.4,0.7-0.7,1.5-1.2,2.4c-6.8-3.5-13-7.7-19.5-11.3C288.7,470.6,282.3,466.6,276,462.9z"/>
<path opacity="0.5" fill="#54A346" d="M66.2,64.1c2.2-1.3,4.4-2.6,6.5-3.8c2.7-1.6,5.3-3.2,8-4.7c3.4-2,6.8-3.9,10.1-5.9
	c3.5-2,6.9-4.1,10.4-6.2c0.9-0.5,1.8-1.1,2.7-1.6c0.8-0.4,1.2-0.2,1.7,0.6c0.1,0.2,0.3,0.5,0.4,0.8c0.1,0.2,0.2,0.4,0.3,0.7
	c-5.7,3.3-11.4,6.6-17.1,9.9c-3.2,1.9-6.4,3.9-9.6,5.8c-2.6,1.5-5.2,3-7.8,4.4c-0.9,0.5-1.8,1.1-2.7,1.5c-1.3,0.7-1.5,0.7-2.4-0.6
	C66.5,64.8,66.4,64.5,66.2,64.1z"/>
<path opacity="0.5" fill="#54A346" d="M213.7,542.8c-0.1,0.3-0.2,0.6-0.3,0.9c-0.7,1.4-1.1,1.5-2.4,0.7c-3.1-1.9-6.3-3.9-9.4-5.8
	c-3.8-2.2-7.6-4.4-11.4-6.6c-4.3-2.5-8.6-5.1-13-7.7c-1-0.6-2.1-1.2-3.3-1.8c0.4-0.9,0.8-1.7,1.2-2.4
	C176.5,520.5,212.1,541.4,213.7,542.8z"/>
<path opacity="0.5" fill="#54A346" d="M213.9,423.4c-0.5,0.8-1,1.5-1.5,2.4c-12.9-7.6-25.6-15.1-38.5-22.6c0.4-0.8,0.8-1.6,1.3-2.6
	C188.1,408.2,201,415.7,213.9,423.4z"/>
<path opacity="0.5" fill="#54A346" d="M275.9,224.4c1.2-2.5,1.2-2.5,3.5-1.2c4.8,2.8,9.7,5.5,14.5,8.3c6,3.5,11.9,7,17.8,10.5
	c1.4,0.8,2.7,1.7,4.2,2.7c-0.4,0.8-0.8,1.5-1.3,2.4c-6.6-3.6-12.9-7.6-19.3-11.3C288.8,232.1,282.4,228.2,275.9,224.4z"/>
<path opacity="0.5" fill="#54A346" d="M139.3,315.5c-0.3,0.6-0.5,1-0.7,1.3c-0.6,0.9-1.1,1-2.1,0.5c-1.1-0.6-2.1-1.2-3.2-1.8
	c-3.5-2.1-6.9-4.1-10.4-6.2c-3.1-1.9-6.2-3.7-9.4-5.6c-2.7-1.6-5.5-3.2-8.2-4.8c-2-1.2-4.1-2.4-6.2-3.6c0.4-0.9,0.8-1.7,1.3-2.6
	c6.5,3.8,13,7.5,19.4,11.2C126.4,307.8,132.8,311.6,139.3,315.5z"/>
<path opacity="0.5" fill="#54A346" d="M241.4,255.9c-0.5,0.9-0.9,1.5-1.5,2.4c-6.7-3.5-12.9-7.6-19.3-11.2
	c-6.5-3.7-12.8-7.5-19.3-11.3c0.5-0.9,0.9-1.6,1.3-2.5C215.6,240.8,228.4,248.3,241.4,255.9z"/>
<path opacity="0.5" fill="#54A346" d="M343.4,315.5c-0.4,0.7-0.7,1.1-0.9,1.5c-0.4,0.9-1.2,0.8-1.8,0.4c-1.7-0.9-3.2-2-4.9-3
	c-1.7-1-3.5-2.1-5.2-3.1c-4.2-2.5-8.5-5-12.7-7.5c-2.6-1.5-5.2-3-7.8-4.5c-1.8-1-3.5-2-5.3-3c-1.5-0.9-1.5-1-0.7-2.6
	c0.2-0.3,0.4-0.6,0.6-0.9C317.6,300.4,330.4,307.9,343.4,315.5z"/>
<path opacity="0.5" fill="#54A346" d="M206.9,339.5c0.5,0.9,0.9,1.7,1.4,2.5c-13,7.6-25.7,15.1-38.6,22.7c-0.6-0.8-1-1.5-1.6-2.4
	C181,354.7,193.8,347.2,206.9,339.5z"/>
<path opacity="0.5" fill="#54A346" d="M111.9,363.7c-0.3,0.6-0.5,1.1-0.8,1.6c-0.1,0.2-0.4,0.4-0.5,0.7c-2.1-0.7-37-21.3-38.4-22.6
	c0.1-0.2,0.1-0.4,0.2-0.6c0.8-1.5,1.1-1.6,2.5-0.8c3.2,1.8,6.3,3.7,9.4,5.6c3.3,2,6.7,3.9,10.1,5.9c2.7,1.6,5.5,3.2,8.2,4.8
	C105.6,360,108.6,361.8,111.9,363.7z"/>
<path opacity="0.5" fill="#54A346" d="M275.9,343.7c1.2-2.7,1.3-2.7,3.5-1.3c4.1,2.4,8.2,4.9,12.2,7.3c3.2,1.9,6.5,3.7,9.7,5.6
	c4.8,2.8,9.6,5.7,14.5,8.6c-0.5,0.8-0.9,1.6-1.4,2.5C301.6,358.7,288.7,351.2,275.9,343.7z"/>
<path opacity="0.5" fill="#54A346" d="M112,244.5c-0.6,0.9-0.9,1.6-1.4,2.4c-1.7-0.9-3.4-1.8-5-2.7c-3.4-2-6.8-4.1-10.2-6.1
	c-3.2-1.9-6.4-3.7-9.6-5.5c-4.2-2.5-8.3-5-12.5-7.4c-1.3-0.7-1.7-0.9-0.5-2.3c0.2-0.3,0.4-0.5,0.8-0.9
	C86.3,229.5,99.1,237,112,244.5z"/>
<path opacity="0.5" fill="#54A346" d="M241.3,136.6c-0.5,0.8-0.9,1.5-1.5,2.4c-13-7.4-25.7-15-38.6-22.6c0.5-0.9,0.9-1.6,1.4-2.5
	C215.6,121.5,228.4,129,241.3,136.6z"/>
<path opacity="0.5" fill="#54A346" d="M201.3,474.2c0.5-0.9,0.9-1.6,1.4-2.5c12.9,7.6,25.7,15.1,38.6,22.7c-0.5,0.8-0.8,1.5-1.4,2.4
	c-6.7-3.4-12.9-7.5-19.4-11.2C214.1,481.8,207.7,478,201.3,474.2z"/>
<path opacity="0.5" fill="#54A346" d="M111.8,483.1c-1.1,2.3-1.5,2.5-3.5,1.2c-4-2.4-8-4.9-12-7.2c-3.9-2.3-7.9-4.5-11.9-6.8
	c-3.9-2.3-7.8-4.6-11.6-6.9c-0.9-0.5-0.9-0.8-0.4-1.7c0.6-1,1-1.3,1.9-0.8c1.6,0.9,3.2,1.9,4.8,2.8c2.7,1.6,5.4,3.1,8.1,4.7
	c3.2,1.9,6.4,3.8,9.6,5.7c2.7,1.6,5.5,3.2,8.3,4.8C107.4,480.3,109.6,481.7,111.8,483.1z"/>
<path opacity="0.5" fill="#54A346" d="M241.3,375.1c-0.5,0.9-0.9,1.6-1.4,2.3c-0.3-0.1-0.6-0.1-0.9-0.3
	c-12.6-7.4-25.2-14.7-37.8-22.2c0.5-0.9,1-1.7,1.4-2.5C215.6,360,228.4,367.5,241.3,375.1z"/>
<path opacity="0.5" fill="#54A346" d="M139.2,434.7c-1.5,2.8-1.3,2.4-3.4,1.3c-2.6-1.4-5.1-2.9-7.7-4.4c-4.3-2.5-8.6-5.1-13-7.6
	c-3.1-1.8-6.2-3.5-9.3-5.4c-1.9-1.1-3.8-2.4-5.7-3.5c-0.3-0.2-0.5-0.5-0.7-0.7c0-0.2,0-0.3,0.1-0.4c1-2,1-2.1,2.9-1
	c5,3,10.1,6,15.1,8.9c3.2,1.9,6.4,3.7,9.6,5.5C131.2,429.9,135.2,432.3,139.2,434.7z"/>
<path opacity="0.5" fill="#54A346" d="M213.8,184.8c-0.3,0.6-0.4,1.1-0.7,1.5c-0.5,0.9-0.8,1-1.7,0.5c-4.4-2.6-8.8-5.3-13.2-7.9
	c-3.4-2-6.9-3.9-10.4-5.9c-1.3-0.7-2.6-1.5-3.9-2.3c-3.3-2-6.6-4-10.1-6c0.3-0.9,0.5-1.8,1.6-2.4C188.3,169.8,201,177.3,213.8,184.8
	z"/>
<path opacity="0.5" fill="#54A346" d="M72,105.1c0.3-0.7,0.4-1.1,0.6-1.5c0.4-0.6,1-0.9,1.8-0.4c1.8,1.1,3.6,2.1,5.4,3.1
	c6.5,3.8,13,7.6,19.5,11.4c3.9,2.3,7.8,4.6,11.7,6.9c0.3,0.2,0.5,0.4,0.8,0.7c-1,2.5-1.2,2.5-3.4,1.2c-3.2-1.9-6.5-3.7-9.8-5.6
	c-2.6-1.5-5.2-3.2-7.9-4.7c-2.6-1.6-5.3-3-7.9-4.6c-2-1.2-3.9-2.4-5.9-3.6C75.3,107,73.7,106.1,72,105.1z"/>
<path opacity="0.5" fill="#54A346" d="M281.6,231.9c0.3,0.6,0.7,1.3,1.1,2c-0.4,0.4-0.7,0.8-1.2,1c-3.9,2.3-7.9,4.5-11.9,6.8
	c-5.9,3.5-11.8,7-17.8,10.5c-2.5,1.5-4.9,3-7.5,4.5c-0.5-0.9-1-1.6-1.4-2.2C244.6,253,279.4,232.6,281.6,231.9z"/>
<path opacity="0.5" fill="#54A346" d="M304.5,173.8c0.4,0.1,0.8,0,1.1,0.2c12.5,7.3,25.1,14.7,37.7,22.1c-0.4,0.8-0.7,1.4-1.1,2.2
	c-0.6-0.2-1.3-0.3-1.9-0.6c-2.5-1.4-5-2.9-7.5-4.3c-3.5-2-6.9-4.1-10.4-6.2c-4.1-2.5-8.2-4.9-12.3-7.4c-1.7-1-3.5-2-5.3-3
	c-1.4-0.8-1.4-0.8-0.7-2.3C304.2,174.4,304.3,174.2,304.5,173.8z"/>
<path opacity="0.5" fill="#54A346" d="M282.8,353.4c-12.9,7.5-25.6,15-38.4,22.5c-0.6-0.9-1-1.6-1.4-2.3c0.5-0.4,0.9-0.8,1.4-1.1
	c7.3-4.2,14.6-8.4,21.8-12.7c4.6-2.7,9.1-5.4,13.7-8.1c1.6-0.9,1.6-0.9,2.4,0.7C282.4,352.7,282.5,352.9,282.8,353.4z"/>
<path opacity="0.5" fill="#54A346" d="M142.4,77.8c-0.6-0.9-1-1.6-1.5-2.5c12.8-7.5,25.6-15,38.5-22.6c0.5,0.8,1,1.5,1.5,2.3
	c-6.2,4.1-12.8,7.6-19.1,11.3C155.3,70.2,149,74,142.4,77.8z"/>
<path opacity="0.5" fill="#54A346" d="M142.4,435.6c-0.6-0.9-1-1.6-1.5-2.4c0.8-0.5,1.5-1,2.3-1.5c5.4-3.2,10.7-6.3,16.1-9.4
	c2.3-1.3,4.6-2.6,6.9-4c3.6-2.1,7.2-4.3,10.8-6.5c0.7-0.4,1.5-0.8,2.4-1.2c0.5,0.7,0.9,1.4,1.4,2.3c-6.4,3.9-12.8,7.6-19.2,11.4
	C155.3,428,148.9,431.8,142.4,435.6z"/>
<path opacity="0.5" fill="#54A346" d="M180.9,174.4c-12.8,7.6-25.6,15.1-38.4,22.6c-0.6-0.8-1-1.5-1.5-2.3c0.3-0.2,0.4-0.4,0.7-0.6
	c2.7-1.6,5.3-3.2,8-4.7c3.3-1.9,6.7-3.9,10-5.8c3.4-2,6.8-4,10.3-6.1c2.7-1.6,5.4-3.2,8.1-4.7c1.2-0.7,1.6-0.6,2.4,0.7
	C180.4,173.8,180.6,174,180.9,174.4z"/>
<path opacity="0.5" fill="#54A346" d="M99.4,176.1c1.2-3.2,1.5-2.4,3.5-1.3c4,2.3,8,4.7,12,7.1c4.2,2.5,8.4,4.9,12.6,7.3
	c2.6,1.5,5.1,3,7.6,4.5c1.3,0.8,2.7,1.6,4,2.3c0,0.2,0.1,0.3,0,0.4c-1.4,2.5-1.2,2.1-3.2,1c-2.6-1.4-5.1-2.9-7.7-4.4
	c-4.3-2.5-8.6-5.1-13-7.7c-3.4-2-6.8-4.1-10.3-6.1C103.1,178.3,101.2,177.2,99.4,176.1z"/>
<path opacity="0.5" fill="#54A346" d="M281.5,470.2c0.5,1,0.8,1.6,1.3,2.5c-12.8,7.7-25.6,15-38.4,22.7c-0.5-0.8-1-1.6-1.6-2.5
	C255.7,485.2,268.4,477.7,281.5,470.2z"/>
<path opacity="0.5" fill="#54A346" d="M78.7,234.2c-1.4,0.9-2.8,1.7-4.2,2.6c-4.5,2.7-8.9,5.3-13.4,7.9c-3.4,2-7,3.9-10.4,5.9
	c-2.4,1.4-4.7,2.9-7.1,4.3c-0.4,0.3-0.9,0.5-1.4,0.8c-2.1,1.1-2.1,1-3.3-1.3c1.5-0.9,2.9-2,4.4-2.8c4.8-2.8,9.7-5.6,14.5-8.4
	c5.5-3.2,10.9-6.5,16.4-9.7c0.7-0.4,1.5-0.8,2.3-1.3c0.6-0.4,1.1-0.3,1.4,0.4C78.2,233.1,78.4,233.6,78.7,234.2z"/>
<path opacity="0.5" fill="#54A346" d="M244.4,137.4c-0.5-0.8-0.9-1.5-1.5-2.4c1.4-0.8,2.7-1.6,4-2.4c3.5-2.1,7-4.1,10.4-6.1
	c3.3-1.9,6.7-3.9,10-5.8c3.5-2,6.9-4.1,10.4-6.2c0.9-0.6,1.9-1.1,2.8-1.7c0.3-0.1,0.7-0.1,1.1-0.1c0.4,0.7,0.7,1.3,1.1,2.2
	C270,122.5,257.2,130,244.4,137.4z"/>
<path opacity="0.5" fill="#54A346" d="M40.4,376c-1.5-2.4-1.6-2.4,0.6-3.7c5.1-3,10.2-6.1,15.3-9c4-2.3,8-4.6,12-6.9
	c2.3-1.4,4.6-2.9,6.9-4.3c2.6-1.5,2.2-1.1,3.5,1.2c-6.2,4.1-12.8,7.5-19.1,11.4C53.3,368.5,46.9,372.2,40.4,376z"/>
<path opacity="0.5" fill="#54A346" d="M343.2,434.8c-0.3,0.7-0.7,1.3-1.1,2.1c-0.6-0.2-1.2-0.3-1.6-0.6c-5.6-3.3-11.2-6.7-16.8-10
	c-4-2.3-8-4.6-12-6.9c-2.4-1.4-4.8-2.9-7.3-4.3c-0.9-0.5-0.9-0.8-0.4-1.8c0.6-1,0.8-1.2,1.7-0.7c1.6,0.9,3.1,1.8,4.7,2.7
	c6.9,4,13.7,8,20.5,12c3.9,2.3,7.9,4.7,11.8,7C342.8,434.4,342.9,434.5,343.2,434.8z"/>
<path opacity="0.5" fill="#54A346" d="M78.9,114.9c-12.9,7.6-25.6,15.1-38.3,22.5c-0.2-0.1-0.4-0.1-0.4-0.2
	c-1.3-2.2-1.3-2.2,0.9-3.4c4-2.4,8-4.8,12-7.2c3.4-2,6.9-3.9,10.4-5.9c2.4-1.4,4.8-2.9,7.2-4.4c1.7-1,3.4-2,5.1-3
	c1.4-0.8,1.6-0.9,2.4,0.5C78.4,114.1,78.5,114.3,78.9,114.9z"/>
<path opacity="0.5" fill="#54A346" d="M68.3,471.4c-0.8,0-1.6,0-2.4,0c0-15.1,0-30.1,0-45.2c0.8,0,1.6,0,2.4,0
	C68.6,427.3,68.7,469.1,68.3,471.4z"/>
<path opacity="0.5" fill="#54A346" d="M215.3,426.1c0.8,0,1.6,0,2.4,0c0,15.1,0,30.1,0,45.2c-0.8,0-1.6,0-2.4,0
	C215,470.1,214.9,428.1,215.3,426.1z"/>
<path opacity="0.5" fill="#54A346" d="M170.5,54.1c-0.9,0-1.6,0-2.3,0c-0.4-1.2-0.6-41.4-0.2-45.1c0.8,0,1.6,0,2.5,0
	C170.5,24,170.5,38.9,170.5,54.1z"/>
<path opacity="0.5" fill="#54A346" d="M113.1,128.1c0.9,0,1.7,0,2.4,0c0.3,1.3,0.5,41.9,0.2,45.2c-0.8,0-1.6,0-2.5,0
	C113.1,158.3,113.1,143.3,113.1,128.1z"/>
<path opacity="0.5" fill="#54A346" d="M68.4,232.9c-0.9,0-1.7,0-2.4,0c-0.4-1.3-0.5-41.9-0.2-45.2c0.8,0,1.6,0,2.5,0
	C68.4,202.8,68.4,217.7,68.4,232.9z"/>
<path opacity="0.5" fill="#54A346" d="M217.7,232.9c-0.9,0-1.7,0-2.4,0c-0.4-1.3-0.5-41.8-0.2-45.2c0.8,0,1.6,0,2.5,0
	C217.7,202.7,217.7,217.7,217.7,232.9z"/>
<path opacity="0.5" fill="#54A346" d="M115.6,411.9c-0.8,0-1.6,0-2.3,0c-0.4-1.2-0.5-41.9-0.1-45.2c0.7,0,1.5-0.1,2.3-0.1
	C115.8,367.9,116,408.6,115.6,411.9z"/>
<path opacity="0.5" fill="#54A346" d="M168,128.1c0.9,0,1.7,0,2.7,0c0,0.7,0,1.3,0,1.9c0,13.8,0,27.5,0,41.3c0,2.3-0.2,2.4-2.7,2
	C168,158.3,168,143.3,168,128.1z"/>
<path opacity="0.5" fill="#54A346" d="M167.9,411.8c0-15,0-30,0-45.1c0.8,0,1.6,0,2.5,0c0,0.4,0.2,0.8,0.2,1.3c0,14.1,0,28.2,0,42.3
	C170.6,412,170.4,412.1,167.9,411.8z"/>
<path opacity="0.5" fill="#54A346" d="M115.6,54.2c-0.9-0.1-1.7-0.2-2.5-0.3c0-15,0-29.9,0-45c0.8,0,1.6-0.1,2.3-0.1
	C115.8,10.1,116,50.4,115.6,54.2z"/>
<path opacity="0.5" fill="#54A346" d="M215.2,307.1c0.8,0,1.6,0,2.3,0c0.4,1.2,0.5,42,0.2,44.9c-0.8,0-1.5,0-2.3,0
	C215,350.9,214.8,310.1,215.2,307.1z"/>
<path opacity="0.5" fill="#54A346" d="M68.3,352.1c-0.8,0-1.6,0-2.3,0c-0.4-1.3-0.4-42.8-0.1-45c0.8,0,1.5,0,2.3,0
	C68.6,308.4,68.7,349.9,68.3,352.1z"/>
<path opacity="0.5" fill="#54A346" d="M113.2,247.4c0.5,0,0.9-0.1,1.3-0.1c0.3,0,0.7,0.1,1.3,0.1c0,15,0,29.9,0,44.9
	c-0.9,0-1.7,0-2.5,0C112.9,291.1,112.8,249.6,113.2,247.4z"/>
<path opacity="0.5" fill="#54A346" d="M170.4,292.4c-0.8,0-1.6,0-2.3,0c-0.4-1.3-0.5-42.3-0.1-45c0.8,0,1.5,0,2.3,0
	C170.7,248.6,170.8,289.8,170.4,292.4z"/>
<path opacity="0.5" fill="#54A346" d="M168.2,531.1c-0.1-0.5-0.3-1-0.3-1.5c0-14.2,0-28.4,0-42.6c0-0.3,0-0.6,0.1-1
	c0.8,0,1.7,0,2.6,0c0,0.6,0.1,1.2,0.1,1.8c0,13.8,0,27.6,0,41.4c0,0.7,0.4,1.6-0.6,2C169.4,531.1,168.8,531.1,168.2,531.1z"/>
<path opacity="0.5" fill="#54A346" d="M65.9,68.6c0.8,0,1.6,0,2.3,0c0.4,1.2,0.5,41.8,0.2,44.9c-0.8,0-1.5,0-2.3,0
	C65.7,112.4,65.6,71.6,65.9,68.6z"/>
<path opacity="0.5" fill="#54A346" d="M319.6,411.9c-0.8,0-1.5,0-2.1,0c-0.4-1.3-0.5-43-0.1-45.2c0.7,0,1.4,0,2.2,0
	C319.6,381.7,319.6,396.7,319.6,411.9z"/>
<path opacity="0.5" fill="#54A346" d="M11.3,426.1c0.8,0,1.4,0,2.1,0c0.4,1.3,0.6,41.5,0.2,45.2c-0.7,0-1.4,0-2.1,0
	C11.1,470.1,10.9,429.8,11.3,426.1z"/>
<path opacity="0.5" fill="#54A346" d="M270.1,187.6c0.8,0,1.4,0,2.1,0c0.4,1.3,0.5,41.6,0.2,45.2c-0.7,0-1.4,0-2.1,0
	C269.9,231.6,269.7,191.3,270.1,187.6z"/>
<path opacity="0.5" fill="#54A346" d="M13.6,232.9c-0.6,0-1,0.1-1.4,0.1c-0.3,0-0.6-0.1-0.9-0.1c0-15.1,0-30.1,0-45.2
	c0.8,0,1.5,0,2.3,0C13.6,202.7,13.6,217.7,13.6,232.9z"/>
<path opacity="0.5" fill="#54A346" d="M272.4,471.4c-0.9,0-1.5,0-2.3,0c0-15.1,0-30.1,0-45.2c0.8,0,1.5,0,2.3,0
	C272.4,441.2,272.4,456.2,272.4,471.4z"/>
<path opacity="0.5" fill="#54A346" d="M317.2,128.1c0.6,0,1-0.1,1.4-0.1c0.3,0,0.6,0.1,0.9,0.1c0,15.1,0,30.1,0,45.2
	c-0.8,0-1.5,0-2.3,0C317.2,158.3,317.2,143.3,317.2,128.1z"/>
<path opacity="0.5" fill="#54A346" d="M319.5,530.9c-0.8,0-1.4,0-2.2,0c0-15,0-30,0-45c0.8,0,1.4,0,2.1,0
	C319.7,487.1,319.9,528.2,319.5,530.9z"/>
<path opacity="0.5" fill="#54A346" d="M317.3,247.4c0.8,0,1.5,0,2.2,0c0,15,0,29.9,0,44.9c-0.7,0-1.5,0-2.2,0
	C317.1,291.1,317,249.5,317.3,247.4z"/>
<path opacity="0.5" fill="#54A346" d="M270,352.2c0-15.1,0-30,0-45c0.8,0,1.5,0,2.3,0c0,15,0,29.9,0,44.9c-0.3,0.1-0.5,0.1-0.7,0.1
	C271.1,352.2,270.7,352.2,270,352.2z"/>
<path opacity="0.5" fill="#54A346" d="M13.5,352.1c-0.8,0-1.5,0-2.2,0c0-15,0-29.9,0-44.9c0.7,0,1.5,0,2.2,0
	C13.7,308.5,13.8,350,13.5,352.1z"/>
<path opacity="0.5" fill="#54A346" d="M13.5,113.6c-0.8,0-1.4,0-2.2,0c0-15,0-29.9,0-44.9c0.7,0,1.4,0,2.2,0
	C13.7,69.9,13.8,111.4,13.5,113.6z"/>
<path opacity="0.5" fill="#54A346" d="M4.2,429.1c-0.1-0.3-0.2-0.6-0.4-1c-0.8-1.6-0.8-1.6-2.4-1.1c0.6-1.1,1-1.3,1.9-0.8
	c1,0.5,1,1.5,1.5,2.4C4.8,428.7,4.4,429,4.2,429.1z"/>
<path opacity="0.5" fill="#54A346" d="M-0.7,428.5c-1.4,0.8-2.8,1.6-4.2,2.4c0.2-0.3,0.3-0.6,0.5-0.8c0.9-0.6,1.8-1.2,2.8-1.7
	C-1.4,428.3-1,428.5-0.7,428.5z"/>
<path opacity="0.5" fill="#54A346" d="M-0.1,431.9c1.3-0.8,2.6-1.6,3.9-2.4c-0.1,0.4-0.1,1-0.3,1.1C2.3,431,1.4,432.2-0.1,431.9z"/>
<path opacity="0.5" fill="#54A346" d="M-4.9,430.9c-0.7,0.5-1.4,0.9-2.1,1.4C-6.7,431-6.6,431-4.9,430.9z"/>
<path opacity="0.5" fill="#54A346" d="M-2.5,433.3c0.6-0.4,1.2-0.7,1.7-1.1C-1.1,433.5-1.4,433.7-2.5,433.3z"/>
<path opacity="0.5" fill="#54A346" d="M168.2,531.1c0.6,0,1.2,0,1.8,0C169.2,531.8,168.9,531.8,168.2,531.1z"/>
<path opacity="0.5" fill="#54A346" d="M-4.6,434.3c0.5-0.2,0.9-0.5,1.4-0.7C-3.5,434.8-3.6,434.9-4.6,434.3z"/>
<path opacity="0.5" fill="#54A346" d="M372.8,531.1c0.4,0,0.7,0,1.1,0C373.5,531.8,373.1,531.8,372.8,531.1z"/>
<path opacity="0.5" fill="#54A346" d="M141.9,588.6c-0.6-1-1-1.7-1.5-2.5c21.9-12.9,43.8-25.7,65.8-38.6c1,0.5,1.2,1.4,1.6,2.5
	C185.8,562.8,163.9,575.7,141.9,588.6z"/>
<path opacity="0.5" fill="#54A346" d="M342.7,587.7c-0.4,0.7-0.7,1.4-1.1,2.2c-0.6-0.2-1.2-0.3-1.6-0.5c-5.2-3-10.3-5.9-15.4-9
	c-4.9-2.9-9.8-5.9-14.7-8.8c-5.8-3.4-11.7-6.8-17.5-10.2c-3.2-1.9-6.3-3.8-9.5-5.7c-1.8-1.1-3.7-2.1-5.6-3.2
	c-0.6-0.3-1.2-0.7-1.8-1.2c0.5-0.7,0.9-1.4,1.5-2.3c11.2,6.1,21.9,12.8,32.9,19.1C320.8,574.6,331.6,581.2,342.7,587.7z"/>
<path opacity="0.5" fill="#54A346" d="M242,530.9c0.9,0,1.7,0,2.6,0c0,25.8,0,51.4,0,77.3c-0.8,0-1.6,0-2.6,0
	C242,582.5,242,556.8,242,530.9z"/>
<path opacity="0.5" fill="#54A346" d="M346.5,667.8c-0.8,0-1.6,0-2.4,0c0-25.7,0-51.3,0-77.1c0.8,0,1.5,0,2.4,0c0,0,0,0,0.1,0.1
	c0,0,0.1,0.1,0.1,0.1c0,0.3,0.1,0.6,0.1,0.9c0,25.1,0,50.2,0,75.4C346.7,667.3,346.6,667.5,346.5,667.8z"/>
<path opacity="0.5" fill="#54A346" d="M275.3,562.1c0.5-0.9,1-1.5,1.5-2.4c19,11.1,37.9,22.3,57,33.5c-0.5,0.8-0.9,1.5-1.4,2.4
	c-5.1-2.5-9.7-5.6-14.4-8.4c-4.7-2.8-9.4-5.6-14.2-8.3c-4.8-2.8-9.6-5.5-14.4-8.3C284.7,567.8,280.1,564.9,275.3,562.1z"/>
<path opacity="0.5" fill="#54A346" d="M206.6,558.2c0.4,0.9,0.8,1.5,1.2,2.4c-19,11.2-37.9,22.3-56.9,33.5c-0.3-0.4-0.5-0.7-0.7-1.1
	c-0.2-0.3-0.4-0.7-0.7-1.3c1.2-0.8,2.4-1.7,3.6-2.4c6.4-3.8,12.9-7.6,19.4-11.4c3.2-1.9,6.5-3.7,9.7-5.6c3.5-2,6.9-4.1,10.4-6.2
	c3.4-2,6.8-3.9,10.2-5.9c0.6-0.4,1.2-0.8,1.9-1.2C205.3,558.7,205.9,558.5,206.6,558.2z"/>
<path opacity="0.5" fill="#54A346" d="M284.4,546c0.5-0.9,1-1.6,1.5-2.4c18.9,11.1,37.8,22.2,56.8,33.4c-0.3,0.5-0.4,1-0.7,1.4
	c-0.7,1-0.9,1-2,0.4c-4.2-2.5-8.5-4.9-12.7-7.4c-2.6-1.5-5.1-3.1-7.7-4.6c-2.6-1.5-5.2-3-7.8-4.5c-1.4-0.8-2.8-1.6-4.2-2.4
	c-3.3-2-6.7-3.9-10-5.9c-3.1-1.9-6.2-3.7-9.4-5.6C287,547.6,285.8,546.8,284.4,546z"/>
<path opacity="0.5" fill="#54A346" d="M198.6,544.5c-1.8,1.1-3.5,2.1-5.2,3.1c-4.1,2.5-8.2,4.9-12.4,7.4c-1.7,1-3.5,2-5.3,3
	c-2.6,1.5-5.2,3.1-7.8,4.6c-2.8,1.6-5.6,3.2-8.4,4.9c-4.2,2.5-8.4,5-12.6,7.5c-1.3,0.8-2.6,1.5-4,2.2c-1.2,0.6-1.3,0.6-2-0.7
	c-0.2-0.3-0.3-0.6-0.5-1.1c1.3-0.8,2.6-1.6,4-2.4c4.4-2.6,8.7-5.2,13.1-7.8c3.2-1.9,6.4-3.7,9.6-5.5c5.3-3.1,10.5-6.2,15.8-9.3
	c4.3-2.5,8.7-5,13-7.6c1.5-0.9,1.6-0.9,2.3,0.6C198.3,543.8,198.4,544.1,198.6,544.5z"/>
<path opacity="0.5" fill="#54A346" d="M353.3,596c0.8,0,1.5,0,2.4,0c0,22.2,0,44.3,0,66.5c-0.4,0.1-0.8,0.1-1.2,0.2
	c-0.4,0-0.8,0-1.2-0.1C353,661.2,352.9,597.8,353.3,596z"/>
<path opacity="0.5" fill="#54A346" d="M253.7,536.4c0,22.2,0,44.3,0,66.6c-0.9,0-1.6,0-2.5,0c0-22.2,0-44.3,0-66.6
	C252,536.4,252.7,536.4,253.7,536.4z"/>
<path opacity="0.5" fill="#54A346" d="M232.9,536.4c0.9,0,1.7,0,2.4,0c0.3,1.3,0.5,63.4,0.2,66.6c-0.8,0-1.6,0-2.5,0
	C232.9,580.8,232.9,558.7,232.9,536.4z"/>
<path opacity="0.5" fill="#54A346" d="M337.5,662.5c-0.9,0-1.6,0-2.4,0c-0.4-1.3-0.5-64.6-0.1-66.6c0.8,0,1.5,0,2.4,0
	C337.5,618.1,337.5,640.2,337.5,662.5z"/>
<path opacity="0.5" fill="#54A346" d="M188.1,536.6c0.3,0.4,0.5,0.5,0.6,0.7c0.8,1.7,1.2,1.8-0.8,2.9c-4.1,2.2-8,4.6-12,7
	c-3.6,2.1-7.3,4.3-10.9,6.4c-2.9,1.7-5.9,3.4-8.9,5.1c-4.2,2.5-8.4,5-12.7,7.6c-1.3,0.8-1.7,0.7-2.5-0.7c-0.1-0.3-0.3-0.5-0.5-1
	c1.1-0.7,2.2-1.4,3.3-2c2.7-1.6,5.4-3.2,8-4.7c3.4-2,6.8-3.9,10.2-5.9c3.4-2,6.8-4.1,10.3-6.1c3.4-2,6.9-4,10.3-6
	c1.1-0.6,2.2-1.3,3.3-2C186.6,537.5,187.3,537.1,188.1,536.6z"/>
<path opacity="0.5" fill="#54A346" d="M159.8,599.3c-0.4-0.7-0.8-1.4-1.3-2.3c4-2.4,7.9-4.7,11.8-7.1c4-2.3,8-4.6,12-6.9
	c4-2.3,7.9-4.8,11.9-7.1c4-2.3,8-4.6,12.2-7c0.4,0.7,0.9,1.4,1.3,2.2C206.6,572.3,162.5,598.1,159.8,599.3z"/>
<path opacity="0.5" fill="#54A346" d="M342.8,566.3c-0.5,0.8-0.9,1.6-1.5,2.5c-16-9.4-31.8-18.7-47.7-28c0.2-0.5,0.4-0.9,0.6-1.3
	c0.2-0.3,0.5-0.6,0.9-1.1C311,547.5,326.8,556.9,342.8,566.3z"/>
<path opacity="0.5" fill="#54A346" d="M276.9,570.5c16,9.4,31.7,18.6,47.7,28c-0.5,0.9-0.9,1.7-1.3,2.6c-16-9.4-31.9-18.7-48-28.2
	C275.9,572,276.3,571.3,276.9,570.5z"/>
<path opacity="0.5" fill="#54A346" d="M362.3,657.2c0-18.6,0-37.1,0-55.7c0.8,0,1.6,0,2.4,0c0.4,1.2,0.5,52.8,0.1,55.7
	C364,657.2,363.2,657.2,362.3,657.2z"/>
<path opacity="0.5" fill="#54A346" d="M223.9,541.7c0.8,0,1.6,0,2.3,0c0.3,1.3,0.4,53.7,0.1,55.8c-0.8,0-1.5,0-2.3,0
	C223.6,596.2,223.5,543.9,223.9,541.7z"/>
<path opacity="0.5" fill="#54A346" d="M260.5,541.6c0.7,0,1.4,0,2,0c0.1,0.1,0.1,0.1,0.1,0.2c0,0,0.1,0.1,0.1,0.1
	c0,18,0.1,36,0.1,54c0,0.5,0,0.9-0.1,1.5c-0.8,0-1.5,0-2.2,0C260.2,596.2,260.2,543.7,260.5,541.6z"/>
<path opacity="0.5" fill="#54A346" d="M325.9,601.4c0.8,0,1.4,0,2.2,0c0,18.6,0,37.1,0,55.7c-0.7,0-1.4,0-2.1,0
	C325.7,656,325.5,604.1,325.9,601.4z"/>
<path opacity="0.5" fill="#54A346" d="M167.7,602.3c12.9-7.5,25.6-15,38.4-22.5c1.1,0.7,1.1,0.7,1.6,2.4c-1.4,0.8-2.8,1.7-4.2,2.5
	c-4.2,2.5-8.5,5-12.7,7.5c-2.5,1.5-5,2.9-7.5,4.4c-3.5,2.1-7,4.1-10.5,6.2c-0.8,0.5-1.6,0.9-2.4,1.4c-1.2,0.7-1.5,0.6-2.1-0.6
	C168.1,603.2,168,602.8,167.7,602.3z"/>
<path opacity="0.5" fill="#54A346" d="M275.5,583.7c1.1-2.8,1.2-2.6,3.5-1.3c4.1,2.4,8.2,4.7,12.3,7.1c5.8,3.4,11.7,6.9,17.5,10.3
	c2.1,1.3,4.3,2.6,6.6,4c-0.4,0.7-0.7,1.5-1.2,2.4c-6.8-3.5-13-7.7-19.5-11.3C288.2,591.4,281.8,587.5,275.5,583.7z"/>
<path opacity="0.5" fill="#54A346" d="M141.9,556.4c-0.6-0.9-1-1.6-1.5-2.4c0.8-0.5,1.5-1,2.3-1.5c5.4-3.2,10.7-6.3,16.1-9.4
	c2.3-1.3,4.6-2.6,6.9-4c3.6-2.1,7.2-4.3,10.8-6.5c0.7-0.4,1.5-0.8,2.4-1.2c0.5,0.7,0.9,1.4,1.4,2.3c-6.4,3.9-12.8,7.6-19.2,11.4
	C154.8,548.8,148.4,552.6,141.9,556.4z"/>
<path opacity="0.5" fill="#54A346" d="M342.7,555.6c-0.3,0.7-0.7,1.3-1.1,2.1c-0.6-0.2-1.2-0.3-1.6-0.6c-5.6-3.3-11.2-6.7-16.8-10
	c-4-2.3-8-4.6-12-6.9c-2.4-1.4-4.8-2.9-7.3-4.3c-0.9-0.5-0.9-0.8-0.4-1.8c0.6-1,0.8-1.2,1.7-0.7c1.6,0.9,3.1,1.8,4.7,2.7
	c6.9,4,13.7,8,20.5,12c3.9,2.3,7.9,4.7,11.8,7C342.3,555.2,342.4,555.3,342.7,555.6z"/>
<path opacity="0.5" fill="#54A346" d="M214.8,547c0.8,0,1.6,0,2.4,0c0,15.1,0,30.1,0,45.2c-0.8,0-1.6,0-2.4,0
	C214.5,590.9,214.4,548.9,214.8,547z"/>
<path opacity="0.5" fill="#54A346" d="M271.9,592.2c-0.9,0-1.5,0-2.3,0c0-15.1,0-30.1,0-45.2c0.8,0,1.5,0,2.3,0
	C271.9,562.1,271.9,577.1,271.9,592.2z"/>
<path opacity="0.5" fill="#54A346" d="M319,651.7c-0.8,0-1.4,0-2.2,0c0-15,0-30,0-45c0.8,0,1.4,0,2.1,0
	C319.2,607.9,319.4,649,319,651.7z"/>
<path fill="#54A346" d="M567.4,453.7c22,12.9,43.9,25.8,65.9,38.7c-0.6,0.8-1.1,1.5-1.6,2.3c-1.6-0.9-3.1-1.7-4.5-2.5
	c-3.7-2.1-7.3-4.2-10.9-6.3c-3.1-1.8-6.2-3.7-9.4-5.6c-2.7-1.6-5.5-3.2-8.2-4.8c-4.2-2.5-8.3-5-12.5-7.5c-1.8-1.1-3.6-2-5.4-3.1
	c-2.6-1.5-5.3-3.1-7.9-4.7c-1.9-1.1-3.9-2.3-5.8-3.4c-1.3-0.8-1.3-0.8-0.4-2.1C566.9,454.6,567,454.3,567.4,453.7z"/>
<path fill="#54A346" d="M566,466.9c0.2-0.5,0.4-1,0.6-1.5c0.1-0.3,0.3-0.6,0.6-1.1c19,11.1,37.9,22.3,56.7,33.3
	c0,0.4,0.1,0.5,0.1,0.6c-0.9,2.2-1,2.2-2.9,1.1c-3.6-2.1-7.1-4.3-10.7-6.4c-3.4-2-6.9-3.9-10.4-5.9c-1.7-1-3.4-2-5.1-3
	c-3.7-2.2-7.4-4.3-11.1-6.4c-2.3-1.4-4.6-2.8-7-4.2c-2.8-1.7-5.7-3.3-8.5-5C567.6,468,566.9,467.5,566,466.9z"/>
<path fill="#54A346" d="M633.2,481.6c-0.1,0.4-0.2,0.5-0.2,0.7c-0.8,1.6-1.4,1.7-2.9,0.8c-1.4-0.9-2.9-1.7-4.3-2.5
	c-3.6-2.1-7.2-4.2-10.8-6.3c-3.7-2.2-7.4-4.3-11-6.5c-3.6-2.1-7.1-4.3-10.7-6.4c-3.2-1.9-6.5-3.7-9.8-5.6c-2.5-1.5-5.1-3-7.6-4.5
	c-0.3-0.2-0.6-0.4-0.9-0.6c0.5-0.9,0.8-1.6,1.3-2.5C595.4,459.4,614.3,470.5,633.2,481.6z"/>
<path fill="#54A346" d="M615.1,503.2c-0.5,0.9-0.9,1.6-1.4,2.5c-16-9.2-31.8-18.6-47.8-28c0.5-0.9,0.8-1.6,1.3-2.6
	C583.3,484.5,599.1,493.8,615.1,503.2z"/>
<path fill="#54A346" d="M633.1,470.9c-0.8,2.5-1.3,2.7-3.4,1.4c-4-2.6-8.2-4.7-12.3-7.1c-3.2-1.9-6.3-3.9-9.5-5.7
	c-2.6-1.5-5.2-3-7.8-4.5c-2.6-1.5-5.3-3.1-7.9-4.7c-2.5-1.5-5-2.9-7.5-4.4c-0.2-0.1-0.3-0.3-0.6-0.5c0.4-0.7,0.8-1.5,1.4-2.4
	C601.5,452.3,617.3,461.6,633.1,470.9z"/>
<path fill="#54A346" d="M605.8,508.6c-1.1,2.3-1.5,2.5-3.5,1.2c-4-2.4-8-4.9-12-7.2c-3.9-2.3-7.9-4.5-11.9-6.8
	c-3.9-2.3-7.8-4.6-11.6-6.9c-0.9-0.5-0.9-0.8-0.4-1.7c0.6-1,1-1.3,1.9-0.8c1.6,0.9,3.2,1.9,4.8,2.8c2.7,1.6,5.4,3.1,8.1,4.7
	c3.2,1.9,6.4,3.8,9.6,5.7c2.7,1.6,5.5,3.2,8.3,4.8C601.4,505.8,603.6,507.2,605.8,508.6z"/>
<path fill="#54A346" d="M633.2,460.2c-1.5,2.8-1.3,2.4-3.4,1.3c-2.6-1.4-5.1-2.9-7.7-4.4c-4.3-2.5-8.6-5.1-13-7.6
	c-3.1-1.8-6.2-3.5-9.3-5.4c-1.9-1.1-3.8-2.4-5.7-3.5c-0.3-0.2-0.5-0.5-0.7-0.7c0-0.2,0-0.3,0.1-0.4c1-2,1-2.1,2.9-1
	c5,3,10.1,6,15.1,8.9c3.2,1.9,6.4,3.7,9.6,5.5C625.2,455.4,629.1,457.8,633.2,460.2z"/>
<path opacity="0.5" fill="#54A346" d="M176,610c22,12.9,43.9,25.8,65.9,38.7c-0.6,0.8-1.1,1.5-1.6,2.3c-1.6-0.9-3.1-1.7-4.5-2.5
	c-3.7-2.1-7.3-4.2-10.9-6.3c-3.1-1.8-6.2-3.7-9.4-5.6c-2.7-1.6-5.5-3.2-8.2-4.8c-4.2-2.5-8.3-5-12.5-7.5c-1.8-1.1-3.6-2-5.4-3.1
	c-2.6-1.5-5.3-3.1-7.9-4.7c-1.9-1.1-3.9-2.3-5.8-3.4c-1.3-0.8-1.3-0.8-0.4-2.1C175.5,610.8,175.7,610.5,176,610z"/>
<path opacity="0.5" fill="#54A346" d="M174.6,623.2c0.2-0.5,0.4-1,0.6-1.5c0.1-0.3,0.3-0.6,0.6-1.1c19,11.1,37.9,22.3,56.7,33.3
	c0,0.4,0.1,0.5,0.1,0.6c-0.9,2.2-1,2.2-2.9,1.1c-3.6-2.1-7.1-4.3-10.7-6.4c-3.4-2-6.9-3.9-10.4-5.9c-1.7-1-3.4-2-5.1-3
	c-3.7-2.2-7.4-4.3-11.1-6.4c-2.3-1.4-4.6-2.8-7-4.2c-2.8-1.7-5.7-3.3-8.5-5C176.2,624.2,175.5,623.7,174.6,623.2z"/>
<path opacity="0.5" fill="#54A346" d="M241.8,637.9c-0.1,0.4-0.2,0.5-0.2,0.7c-0.8,1.6-1.4,1.7-2.9,0.8c-1.4-0.9-2.9-1.7-4.3-2.5
	c-3.6-2.1-7.2-4.2-10.8-6.3c-3.7-2.2-7.4-4.3-11-6.5c-3.6-2.1-7.1-4.3-10.7-6.4c-3.2-1.9-6.5-3.7-9.8-5.6c-2.5-1.5-5.1-3-7.6-4.5
	c-0.3-0.2-0.6-0.4-0.9-0.6c0.5-0.9,0.8-1.6,1.3-2.5C204,615.6,222.9,626.8,241.8,637.9z"/>
<path opacity="0.5" fill="#54A346" d="M223.8,659.4c-0.5,0.9-0.9,1.6-1.4,2.5c-16-9.2-31.8-18.6-47.8-28c0.5-0.9,0.8-1.6,1.3-2.6
	C191.9,640.7,207.8,650,223.8,659.4z"/>
<path opacity="0.5" fill="#54A346" d="M241.7,627.1c-0.8,2.5-1.3,2.7-3.4,1.4c-4-2.6-8.2-4.7-12.3-7.1c-3.2-1.9-6.3-3.9-9.5-5.7
	c-2.6-1.5-5.2-3-7.8-4.5c-2.6-1.5-5.3-3.1-7.9-4.7c-2.5-1.5-5-2.9-7.5-4.4c-0.2-0.1-0.3-0.3-0.6-0.5c0.4-0.7,0.8-1.5,1.4-2.4
	C210.1,608.5,225.9,617.8,241.7,627.1z"/>
<path opacity="0.5" fill="#54A346" d="M214.5,664.8c-1.1,2.3-1.5,2.5-3.5,1.2c-4-2.4-8-4.9-12-7.2c-3.9-2.3-7.9-4.5-11.9-6.8
	c-3.9-2.3-7.8-4.6-11.6-6.9c-0.9-0.5-0.9-0.8-0.4-1.7c0.6-1,1-1.3,1.9-0.8c1.6,0.9,3.2,1.9,4.8,2.8c2.7,1.6,5.4,3.1,8.1,4.7
	c3.2,1.9,6.4,3.8,9.6,5.7c2.7,1.6,5.5,3.2,8.3,4.8C210,662,212.2,663.5,214.5,664.8z"/>
<path opacity="0.5" fill="#54A346" d="M241.8,616.5c-1.5,2.8-1.3,2.4-3.4,1.3c-2.6-1.4-5.1-2.9-7.7-4.4c-4.3-2.5-8.6-5.1-13-7.6
	c-3.1-1.8-6.2-3.5-9.3-5.4c-1.9-1.1-3.8-2.4-5.7-3.5c-0.3-0.2-0.5-0.5-0.7-0.7c0-0.2,0-0.3,0.1-0.4c1-2,1-2.1,2.9-1
	c5,3,10.1,6,15.1,8.9c3.2,1.9,6.4,3.7,9.6,5.5C233.8,611.7,237.8,614,241.8,616.5z"/>
<path fill="#54A346" d="M634.8,561c22,12.9,43.9,25.8,65.9,38.7c-0.6,0.8-1.1,1.5-1.6,2.3c-1.6-0.9-3.1-1.7-4.5-2.5
	c-3.7-2.1-7.3-4.2-10.9-6.3c-3.1-1.8-6.2-3.7-9.4-5.6c-2.7-1.6-5.5-3.2-8.2-4.8c-4.2-2.5-8.3-5-12.5-7.5c-1.8-1.1-3.6-2-5.4-3.1
	c-2.6-1.5-5.3-3.1-7.9-4.7c-1.9-1.1-3.9-2.3-5.8-3.4c-1.3-0.8-1.3-0.8-0.4-2.1C634.3,561.8,634.5,561.5,634.8,561z"/>
<path fill="#54A346" d="M633.4,574.2c0.2-0.5,0.4-1,0.6-1.5c0.1-0.3,0.3-0.6,0.6-1.1c19,11.1,37.9,22.3,56.7,33.3
	c0,0.4,0.1,0.5,0.1,0.6c-0.9,2.2-1,2.2-2.9,1.1c-3.6-2.1-7.1-4.3-10.7-6.4c-3.4-2-6.9-3.9-10.4-5.9c-1.7-1-3.4-2-5.1-3
	c-3.7-2.2-7.4-4.3-11.1-6.4c-2.3-1.4-4.6-2.8-7-4.2c-2.8-1.7-5.7-3.3-8.5-5C635,575.2,634.3,574.7,633.4,574.2z"/>
<path fill="#54A346" d="M700.6,588.9c-0.1,0.4-0.2,0.5-0.2,0.7c-0.8,1.6-1.4,1.7-2.9,0.8c-1.4-0.9-2.9-1.7-4.3-2.5
	c-3.6-2.1-7.2-4.2-10.8-6.3c-3.7-2.2-7.4-4.3-11-6.5c-3.6-2.1-7.1-4.3-10.7-6.4c-3.2-1.9-6.5-3.7-9.8-5.6c-2.5-1.5-5.1-3-7.6-4.5
	c-0.3-0.2-0.6-0.4-0.9-0.6c0.5-0.9,0.8-1.6,1.3-2.5C662.8,566.7,681.7,577.8,700.6,588.9z"/>
<path fill="#54A346" d="M682.6,610.5c-0.5,0.9-0.9,1.6-1.4,2.5c-16-9.2-31.8-18.6-47.8-28c0.5-0.9,0.8-1.6,1.3-2.6
	C650.7,591.7,666.5,601.1,682.6,610.5z"/>
<path fill="#54A346" d="M700.5,578.1c-0.8,2.5-1.3,2.7-3.4,1.4c-4-2.6-8.2-4.7-12.3-7.1c-3.2-1.9-6.3-3.9-9.5-5.7
	c-2.6-1.5-5.2-3-7.8-4.5c-2.6-1.5-5.3-3.1-7.9-4.7c-2.5-1.5-5-2.9-7.5-4.4c-0.2-0.1-0.3-0.3-0.6-0.5c0.4-0.7,0.8-1.5,1.4-2.4
	C668.9,559.5,684.7,568.8,700.5,578.1z"/>
<path fill="#54A346" d="M673.3,615.9c-1.1,2.3-1.5,2.5-3.5,1.2c-4-2.4-8-4.9-12-7.2c-3.9-2.3-7.9-4.5-11.9-6.8
	c-3.9-2.3-7.8-4.6-11.6-6.9c-0.9-0.5-0.9-0.8-0.4-1.7c0.6-1,1-1.3,1.9-0.8c1.6,0.9,3.2,1.9,4.8,2.8c2.7,1.6,5.4,3.1,8.1,4.7
	c3.2,1.9,6.4,3.8,9.6,5.7c2.7,1.6,5.5,3.2,8.3,4.8C668.8,613,671,614.5,673.3,615.9z"/>
<path fill="#54A346" d="M700.6,567.5c-1.5,2.8-1.3,2.4-3.4,1.3c-2.6-1.4-5.1-2.9-7.7-4.4c-4.3-2.5-8.6-5.1-13-7.6
	c-3.1-1.8-6.2-3.5-9.3-5.4c-1.9-1.1-3.8-2.4-5.7-3.5c-0.3-0.2-0.5-0.5-0.7-0.7c0-0.2,0-0.3,0.1-0.4c1-2,1-2.1,2.9-1
	c5,3,10.1,6,15.1,8.9c3.2,1.9,6.4,3.7,9.6,5.5C692.6,562.7,696.6,565.1,700.6,567.5z"/>
<path opacity="0.5" fill="#54A346" d="M310.1,612.2c-3,1.8-6,3.6-9,5.4c-3.9,2.3-7.9,4.5-11.9,6.8c-3.7,2.2-7.5,4.4-11.2,6.6
	c-3.2,1.9-6.5,3.9-9.7,5.8c-2.5,1.5-5,2.9-7.5,4.4c-3.5,2.1-7,4.1-10.5,6.2c-1.7,1-3.4,2-5.1,3c-0.6,0.3-1.1,0.3-1.6-0.2
	c-0.4-0.4-0.6-0.9-1-1.5c0.9-0.6,1.7-1.1,2.6-1.6c5.6-3.3,11.2-6.6,16.9-9.9c3.1-1.8,6.1-3.7,9.2-5.5c3.4-2,6.8-3.9,10.2-5.9
	c5.2-3,10.3-6.1,15.5-9.1c3.3-1.9,6.5-3.9,9.8-5.8C308.9,609.6,309.1,609.7,310.1,612.2z"/>
<path opacity="0.5" fill="#54A346" d="M253.1,656.4c-0.4-0.8-0.8-1.6-1.3-2.5c1.2-0.8,2.4-1.5,3.6-2.2c3.1-1.8,6.2-3.5,9.3-5.3
	c5-2.9,10-6,15-8.9c6.5-3.8,12.9-7.5,19.4-11.3c2.6-1.5,5.1-3.1,7.7-4.6c0.6-0.4,1.2-0.6,2-1c0.4,0.7,0.8,1.4,1.4,2.4
	c-0.4,0.3-0.7,0.6-1.1,0.8c-5.9,3.5-11.9,7-17.8,10.5c-5.3,3.1-10.7,6.3-16,9.4c-5,2.9-10.1,5.9-15.1,8.8c-2.1,1.2-4.2,2.5-6.2,3.8
	C253.7,656.2,253.5,656.3,253.1,656.4z"/>
<path opacity="0.5" fill="#54A346" d="M301,606.9c-2.4,1.4-4.7,2.7-7,4.1c-2.7,1.6-5.4,3.2-8.1,4.8c-2.6,1.6-5.3,3.1-7.9,4.6
	c-2.8,1.7-5.6,3.4-8.5,5.1c-2.5,1.5-5,2.8-7.5,4.3c-3.3,2-6.7,4-10,5.9c-2.5,1.5-5.1,2.9-7.8,4.5c-0.5-0.9-0.8-1.6-1.3-2.4
	c0.6-0.4,1-0.8,1.6-1.1c6.4-3.8,12.8-7.5,19.3-11.3c4.9-2.9,9.8-5.8,14.7-8.7c6.5-3.8,13.1-7.6,19.6-11.4c1.6-0.9,2-0.8,2.8,0.8
	C300.9,606.4,300.9,606.7,301,606.9z"/>
<path opacity="0.5" fill="#54A346" d="M262.3,661.7c-0.6-1-1-1.6-1.5-2.3c0.6-0.4,1.1-0.8,1.6-1.1c3.4-2,6.9-4,10.3-6
	c3.3-2,6.7-3.9,10-5.9c5.3-3.1,10.6-6.2,16-9.4c2.8-1.6,5.6-3.3,8.3-4.9c1.7-1,1.8-1.1,2.8,0.6c0.1,0.2,0.2,0.4,0.4,0.8
	c-7.8,5-15.9,9.4-23.8,14.1C278.5,652.4,270.6,657.2,262.3,661.7z"/>
<path opacity="0.5" fill="#54A346" d="M244.3,629.5c-0.5-0.8-0.9-1.5-1.4-2.3c0.4-0.3,0.6-0.6,1-0.8c3.3-2,6.6-4,9.9-5.9
	c3.4-2,6.8-4.1,10.2-6.1c3.2-1.9,6.4-3.7,9.6-5.5c2.8-1.6,5.5-3.4,8.3-5c1.9-1.1,3.9-2.2,5.9-3.3c0.8-0.5,1.7-1,2.7-1.6
	c0.5,0.8,1,1.5,1.6,2.4C276.1,610.8,260.2,620.2,244.3,629.5z"/>
<path opacity="0.5" fill="#54A346" d="M270.1,664.5c2.6-1.5,5-2.8,7.3-4.2c2.8-1.7,5.6-3.4,8.4-5.1c3.1-1.8,6.3-3.6,9.5-5.4
	c3.4-2,6.9-4.1,10.3-6.1c0.6-0.4,1.3-0.8,2-1.1c1.1-0.6,1.5-0.5,2.1,0.6c0.2,0.3,0.3,0.6,0.5,1.1c-1.4,0.9-2.8,1.9-4.3,2.8
	c-4.9,2.8-9.8,5.6-14.6,8.4c-5.8,3.4-11.6,6.8-17.4,10.2c-0.4,0.3-0.9,0.6-1.3,0.9c-0.9,0.7-1.1,0.6-1.7-0.4
	C270.6,665.7,270.4,665.2,270.1,664.5z"/>
<path opacity="0.5" fill="#54A346" d="M281.5,593.9c0.3,0.6,0.7,1.3,1.1,2c-0.4,0.4-0.7,0.8-1.2,1c-3.9,2.3-7.9,4.5-11.9,6.8
	c-5.9,3.5-11.8,7-17.8,10.5c-2.5,1.5-4.9,3-7.5,4.5c-0.5-0.9-1-1.6-1.4-2.2C244.5,615,279.3,594.6,281.5,593.9z"/>
</svg>
